solid OpenSCAD_Model
  facet normal -0.809019 -0.587782 0
    outer loop
      vertex 4 5 1.7
      vertex 3.30902 5.95106 3
      vertex 3.30902 5.95106 1.7
    endloop
  endfacet
  facet normal -0.809019 -0.587782 0
    outer loop
      vertex 3.30902 5.95106 3
      vertex 4 5 1.7
      vertex 4 5 3
    endloop
  endfacet
  facet normal 1 -0 0
    outer loop
      vertex 2.19098 4.41222 3
      vertex 2.19098 5.58778 1.7
      vertex 2.19098 5.58778 3
    endloop
  endfacet
  facet normal 1 0 0
    outer loop
      vertex 2.19098 5.58778 1.7
      vertex 2.19098 4.41222 3
      vertex 2.19098 4.41222 1.7
    endloop
  endfacet
  facet normal 0.309022 -0.951055 0
    outer loop
      vertex 2.19098 5.58778 1.7
      vertex 3.30902 5.95106 3
      vertex 2.19098 5.58778 3
    endloop
  endfacet
  facet normal 0.309022 -0.951055 0
    outer loop
      vertex 3.30902 5.95106 3
      vertex 2.19098 5.58778 1.7
      vertex 3.30902 5.95106 1.7
    endloop
  endfacet
  facet normal 0 0 -1
    outer loop
      vertex 4.145 41.0168 0
      vertex 45.855 41.0168 0
      vertex 4.145 6.9832 0
    endloop
  endfacet
  facet normal 0 0 -1
    outer loop
      vertex 45.855 41.0168 0
      vertex 4.145 41.0168 0
      vertex 5.29 43 0
    endloop
  endfacet
  facet normal 0 0 -1
    outer loop
      vertex 1.855 6.9832 0
      vertex 4.145 41.0168 0
      vertex 4.145 6.9832 0
    endloop
  endfacet
  facet normal 0 0 -1
    outer loop
      vertex 1.855 6.9832 0
      vertex 1.855 41.0168 0
      vertex 4.145 41.0168 0
    endloop
  endfacet
  facet normal 0 0 -1
    outer loop
      vertex 0.71 5 0
      vertex 1.855 41.0168 0
      vertex 1.855 6.9832 0
    endloop
  endfacet
  facet normal -0 0 -1
    outer loop
      vertex 1.855 41.0168 0
      vertex 0.71 5 0
      vertex 0.71 43 0
    endloop
  endfacet
  facet normal 0 0 -1
    outer loop
      vertex 48.145 6.9832 0
      vertex 49.29 43 0
      vertex 49.29 5 0
    endloop
  endfacet
  facet normal 0 0 -1
    outer loop
      vertex 48.145 6.9832 0
      vertex 48.145 41.0168 0
      vertex 49.29 43 0
    endloop
  endfacet
  facet normal 0 0 -1
    outer loop
      vertex 45.855 6.9832 0
      vertex 48.145 41.0168 0
      vertex 48.145 6.9832 0
    endloop
  endfacet
  facet normal 0 0 -1
    outer loop
      vertex 45.855 6.9832 0
      vertex 45.855 41.0168 0
      vertex 48.145 41.0168 0
    endloop
  endfacet
  facet normal 0 0 -1
    outer loop
      vertex 5.29 5 0
      vertex 45.855 6.9832 0
      vertex 44.71 5 0
    endloop
  endfacet
  facet normal 0 0 -1
    outer loop
      vertex 4.145 6.9832 0
      vertex 45.855 6.9832 0
      vertex 5.29 5 0
    endloop
  endfacet
  facet normal 0 0 -1
    outer loop
      vertex 49.29 43 0
      vertex 50 0 0
      vertex 49.29 5 0
    endloop
  endfacet
  facet normal 0 0 -1
    outer loop
      vertex 50 0 0
      vertex 48.145 3.0168 0
      vertex 49.29 5 0
    endloop
  endfacet
  facet normal 0 0 -1
    outer loop
      vertex 50 0 0
      vertex 45.855 3.0168 0
      vertex 48.145 3.0168 0
    endloop
  endfacet
  facet normal 0 0 -1
    outer loop
      vertex 45.855 6.9832 0
      vertex 4.145 6.9832 0
      vertex 45.855 41.0168 0
    endloop
  endfacet
  facet normal 0 0 -1
    outer loop
      vertex 45.855 3.0168 0
      vertex 5.29 5 0
      vertex 44.71 5 0
    endloop
  endfacet
  facet normal 0 0 -1
    outer loop
      vertex 4.145 3.0168 0
      vertex 45.855 3.0168 0
      vertex 50 0 0
    endloop
  endfacet
  facet normal 0 0 -1
    outer loop
      vertex 45.855 3.0168 0
      vertex 4.145 3.0168 0
      vertex 5.29 5 0
    endloop
  endfacet
  facet normal 0 0 -1
    outer loop
      vertex 0 0 0
      vertex 4.145 3.0168 0
      vertex 50 0 0
    endloop
  endfacet
  facet normal -0 0 -1
    outer loop
      vertex 0.71 5 0
      vertex 0 0 0
      vertex 0.71 43 0
    endloop
  endfacet
  facet normal -0 0 -1
    outer loop
      vertex 1.855 3.0168 0
      vertex 0 0 0
      vertex 0.71 5 0
    endloop
  endfacet
  facet normal -0 0 -1
    outer loop
      vertex 4.145 3.0168 0
      vertex 0 0 0
      vertex 1.855 3.0168 0
    endloop
  endfacet
  facet normal 0 0 -1
    outer loop
      vertex 50 0 0
      vertex 49.29 43 0
      vertex 50 80 0
    endloop
  endfacet
  facet normal 0 0 -1
    outer loop
      vertex 48.145 44.9832 0
      vertex 50 80 0
      vertex 49.29 43 0
    endloop
  endfacet
  facet normal 0 0 -1
    outer loop
      vertex 45.855 44.9832 0
      vertex 50 80 0
      vertex 48.145 44.9832 0
    endloop
  endfacet
  facet normal 0 0 -1
    outer loop
      vertex 4.145 44.9832 0
      vertex 45.855 44.9832 0
      vertex 44.71 43 0
    endloop
  endfacet
  facet normal 0 0 -1
    outer loop
      vertex 45.855 41.0168 0
      vertex 5.29 43 0
      vertex 44.71 43 0
    endloop
  endfacet
  facet normal 0 0 -1
    outer loop
      vertex 4.145 44.9832 0
      vertex 44.71 43 0
      vertex 5.29 43 0
    endloop
  endfacet
  facet normal 0 0 -1
    outer loop
      vertex 45.855 44.9832 0
      vertex 4.145 44.9832 0
      vertex 50 80 0
    endloop
  endfacet
  facet normal 0 0 -1
    outer loop
      vertex 0 80 0
      vertex 4.145 44.9832 0
      vertex 1.855 44.9832 0
    endloop
  endfacet
  facet normal 0 0 -1
    outer loop
      vertex 4.145 44.9832 0
      vertex 0 80 0
      vertex 50 80 0
    endloop
  endfacet
  facet normal 0 0 -1
    outer loop
      vertex 0.71 43 0
      vertex 0 80 0
      vertex 1.855 44.9832 0
    endloop
  endfacet
  facet normal 0 0 -1
    outer loop
      vertex 0 80 0
      vertex 0.71 43 0
      vertex 0 0 0
    endloop
  endfacet
  facet normal -0.809019 0.587782 0
    outer loop
      vertex 3.30902 4.04894 1.7
      vertex 4 5 3
      vertex 4 5 1.7
    endloop
  endfacet
  facet normal -0.809019 0.587782 0
    outer loop
      vertex 4 5 3
      vertex 3.30902 4.04894 1.7
      vertex 3.30902 4.04894 3
    endloop
  endfacet
  facet normal 0.309022 0.951055 -0
    outer loop
      vertex 3.30902 4.04894 1.7
      vertex 2.19098 4.41222 3
      vertex 3.30902 4.04894 3
    endloop
  endfacet
  facet normal 0.309022 0.951055 0
    outer loop
      vertex 2.19098 4.41222 3
      vertex 3.30902 4.04894 1.7
      vertex 2.19098 4.41222 1.7
    endloop
  endfacet
  facet normal -0.866026 -0.5 0
    outer loop
      vertex 5.29 5 0
      vertex 4.145 6.9832 1.7
      vertex 4.145 6.9832 0
    endloop
  endfacet
  facet normal -0.866026 -0.5 0
    outer loop
      vertex 4.145 6.9832 1.7
      vertex 5.29 5 0
      vertex 5.29 5 1.7
    endloop
  endfacet
  facet normal 0.866026 -0.5 0
    outer loop
      vertex 0.71 5 1.7
      vertex 1.855 6.9832 0
      vertex 1.855 6.9832 1.7
    endloop
  endfacet
  facet normal 0.866026 -0.5 0
    outer loop
      vertex 1.855 6.9832 0
      vertex 0.71 5 1.7
      vertex 0.71 5 0
    endloop
  endfacet
  facet normal 0 -1 0
    outer loop
      vertex 1.855 6.9832 0
      vertex 4.145 6.9832 1.7
      vertex 1.855 6.9832 1.7
    endloop
  endfacet
  facet normal 0 -1 -0
    outer loop
      vertex 4.145 6.9832 1.7
      vertex 1.855 6.9832 0
      vertex 4.145 6.9832 0
    endloop
  endfacet
  facet normal 0 0 -1
    outer loop
      vertex 4 5 1.7
      vertex 5.29 5 1.7
      vertex 4.145 3.0168 1.7
    endloop
  endfacet
  facet normal 0 0 -1
    outer loop
      vertex 5.29 5 1.7
      vertex 4 5 1.7
      vertex 4.145 6.9832 1.7
    endloop
  endfacet
  facet normal 0 0 -1
    outer loop
      vertex 4.145 3.0168 1.7
      vertex 3.30902 4.04894 1.7
      vertex 4 5 1.7
    endloop
  endfacet
  facet normal 0 0 -1
    outer loop
      vertex 1.855 3.0168 1.7
      vertex 3.30902 4.04894 1.7
      vertex 4.145 3.0168 1.7
    endloop
  endfacet
  facet normal 0 0 -1
    outer loop
      vertex 0.71 5 1.7
      vertex 2.19098 4.41222 1.7
      vertex 1.855 3.0168 1.7
    endloop
  endfacet
  facet normal -0 0 -1
    outer loop
      vertex 3.30902 4.04894 1.7
      vertex 1.855 3.0168 1.7
      vertex 2.19098 4.41222 1.7
    endloop
  endfacet
  facet normal 0 0 -1
    outer loop
      vertex 3.30902 5.95106 1.7
      vertex 4.145 6.9832 1.7
      vertex 4 5 1.7
    endloop
  endfacet
  facet normal 0 0 -1
    outer loop
      vertex 1.855 6.9832 1.7
      vertex 3.30902 5.95106 1.7
      vertex 2.19098 5.58778 1.7
    endloop
  endfacet
  facet normal 0 0 -1
    outer loop
      vertex 3.30902 5.95106 1.7
      vertex 1.855 6.9832 1.7
      vertex 4.145 6.9832 1.7
    endloop
  endfacet
  facet normal 0 0 -1
    outer loop
      vertex 2.19098 4.41222 1.7
      vertex 0.71 5 1.7
      vertex 2.19098 5.58778 1.7
    endloop
  endfacet
  facet normal -0 0 -1
    outer loop
      vertex 2.19098 5.58778 1.7
      vertex 0.71 5 1.7
      vertex 1.855 6.9832 1.7
    endloop
  endfacet
  facet normal 0.866026 0.5 0
    outer loop
      vertex 1.855 3.0168 1.7
      vertex 0.71 5 0
      vertex 0.71 5 1.7
    endloop
  endfacet
  facet normal 0.866026 0.5 0
    outer loop
      vertex 0.71 5 0
      vertex 1.855 3.0168 1.7
      vertex 1.855 3.0168 0
    endloop
  endfacet
  facet normal -0.866026 0.5 0
    outer loop
      vertex 4.145 3.0168 0
      vertex 5.29 5 1.7
      vertex 5.29 5 0
    endloop
  endfacet
  facet normal -0.866026 0.5 0
    outer loop
      vertex 5.29 5 1.7
      vertex 4.145 3.0168 0
      vertex 4.145 3.0168 1.7
    endloop
  endfacet
  facet normal 0 1 -0
    outer loop
      vertex 4.145 3.0168 0
      vertex 1.855 3.0168 1.7
      vertex 4.145 3.0168 1.7
    endloop
  endfacet
  facet normal 0 1 0
    outer loop
      vertex 1.855 3.0168 1.7
      vertex 4.145 3.0168 0
      vertex 1.855 3.0168 0
    endloop
  endfacet
  facet normal -0.809023 -0.587777 0
    outer loop
      vertex 48 43 1.7
      vertex 47.309 43.9511 3
      vertex 47.309 43.9511 1.7
    endloop
  endfacet
  facet normal -0.809023 -0.587777 0
    outer loop
      vertex 47.309 43.9511 3
      vertex 48 43 1.7
      vertex 48 43 3
    endloop
  endfacet
  facet normal 1 -0 0
    outer loop
      vertex 46.191 42.4122 3
      vertex 46.191 43.5878 1.7
      vertex 46.191 43.5878 3
    endloop
  endfacet
  facet normal 1 0 0
    outer loop
      vertex 46.191 43.5878 1.7
      vertex 46.191 42.4122 3
      vertex 46.191 42.4122 1.7
    endloop
  endfacet
  facet normal 0.309048 -0.951047 0
    outer loop
      vertex 46.191 43.5878 1.7
      vertex 47.309 43.9511 3
      vertex 46.191 43.5878 3
    endloop
  endfacet
  facet normal 0.309048 -0.951047 0
    outer loop
      vertex 47.309 43.9511 3
      vertex 46.191 43.5878 1.7
      vertex 47.309 43.9511 1.7
    endloop
  endfacet
  facet normal -0.809023 0.587777 0
    outer loop
      vertex 47.309 42.0489 1.7
      vertex 48 43 3
      vertex 48 43 1.7
    endloop
  endfacet
  facet normal -0.809023 0.587777 0
    outer loop
      vertex 48 43 3
      vertex 47.309 42.0489 1.7
      vertex 47.309 42.0489 3
    endloop
  endfacet
  facet normal 0.309048 0.951047 -0
    outer loop
      vertex 47.309 42.0489 1.7
      vertex 46.191 42.4122 3
      vertex 47.309 42.0489 3
    endloop
  endfacet
  facet normal 0.309048 0.951047 0
    outer loop
      vertex 46.191 42.4122 3
      vertex 47.309 42.0489 1.7
      vertex 46.191 42.4122 1.7
    endloop
  endfacet
  facet normal -0.866026 -0.5 0
    outer loop
      vertex 49.29 43 0
      vertex 48.145 44.9832 1.7
      vertex 48.145 44.9832 0
    endloop
  endfacet
  facet normal -0.866026 -0.5 0
    outer loop
      vertex 48.145 44.9832 1.7
      vertex 49.29 43 0
      vertex 49.29 43 1.7
    endloop
  endfacet
  facet normal 0.866026 -0.5 0
    outer loop
      vertex 44.71 43 1.7
      vertex 45.855 44.9832 0
      vertex 45.855 44.9832 1.7
    endloop
  endfacet
  facet normal 0.866026 -0.5 0
    outer loop
      vertex 45.855 44.9832 0
      vertex 44.71 43 1.7
      vertex 44.71 43 0
    endloop
  endfacet
  facet normal 0 -1 0
    outer loop
      vertex 45.855 44.9832 0
      vertex 48.145 44.9832 1.7
      vertex 45.855 44.9832 1.7
    endloop
  endfacet
  facet normal 0 -1 -0
    outer loop
      vertex 48.145 44.9832 1.7
      vertex 45.855 44.9832 0
      vertex 48.145 44.9832 0
    endloop
  endfacet
  facet normal 0 0 -1
    outer loop
      vertex 48 43 1.7
      vertex 49.29 43 1.7
      vertex 48.145 41.0168 1.7
    endloop
  endfacet
  facet normal 0 0 -1
    outer loop
      vertex 49.29 43 1.7
      vertex 48 43 1.7
      vertex 48.145 44.9832 1.7
    endloop
  endfacet
  facet normal 0 0 -1
    outer loop
      vertex 48.145 41.0168 1.7
      vertex 47.309 42.0489 1.7
      vertex 48 43 1.7
    endloop
  endfacet
  facet normal 0 0 -1
    outer loop
      vertex 45.855 41.0168 1.7
      vertex 47.309 42.0489 1.7
      vertex 48.145 41.0168 1.7
    endloop
  endfacet
  facet normal 0 0 -1
    outer loop
      vertex 44.71 43 1.7
      vertex 46.191 42.4122 1.7
      vertex 45.855 41.0168 1.7
    endloop
  endfacet
  facet normal -0 0 -1
    outer loop
      vertex 47.309 42.0489 1.7
      vertex 45.855 41.0168 1.7
      vertex 46.191 42.4122 1.7
    endloop
  endfacet
  facet normal 0 0 -1
    outer loop
      vertex 47.309 43.9511 1.7
      vertex 48.145 44.9832 1.7
      vertex 48 43 1.7
    endloop
  endfacet
  facet normal 0 0 -1
    outer loop
      vertex 45.855 44.9832 1.7
      vertex 47.309 43.9511 1.7
      vertex 46.191 43.5878 1.7
    endloop
  endfacet
  facet normal 0 0 -1
    outer loop
      vertex 47.309 43.9511 1.7
      vertex 45.855 44.9832 1.7
      vertex 48.145 44.9832 1.7
    endloop
  endfacet
  facet normal 0 0 -1
    outer loop
      vertex 46.191 42.4122 1.7
      vertex 44.71 43 1.7
      vertex 46.191 43.5878 1.7
    endloop
  endfacet
  facet normal -0 0 -1
    outer loop
      vertex 46.191 43.5878 1.7
      vertex 44.71 43 1.7
      vertex 45.855 44.9832 1.7
    endloop
  endfacet
  facet normal -0.866026 0.5 0
    outer loop
      vertex 48.145 41.0168 0
      vertex 49.29 43 1.7
      vertex 49.29 43 0
    endloop
  endfacet
  facet normal -0.866026 0.5 0
    outer loop
      vertex 49.29 43 1.7
      vertex 48.145 41.0168 0
      vertex 48.145 41.0168 1.7
    endloop
  endfacet
  facet normal 0 1 -0
    outer loop
      vertex 48.145 41.0168 0
      vertex 45.855 41.0168 1.7
      vertex 48.145 41.0168 1.7
    endloop
  endfacet
  facet normal 0 1 0
    outer loop
      vertex 45.855 41.0168 1.7
      vertex 48.145 41.0168 0
      vertex 45.855 41.0168 0
    endloop
  endfacet
  facet normal 0.866026 0.5 0
    outer loop
      vertex 45.855 41.0168 1.7
      vertex 44.71 43 0
      vertex 44.71 43 1.7
    endloop
  endfacet
  facet normal 0.866026 0.5 0
    outer loop
      vertex 44.71 43 0
      vertex 45.855 41.0168 1.7
      vertex 45.855 41.0168 0
    endloop
  endfacet
  facet normal -0.809031 -0.587766 0
    outer loop
      vertex 4 43 1.7
      vertex 3.30902 43.9511 3
      vertex 3.30902 43.9511 1.7
    endloop
  endfacet
  facet normal -0.809031 -0.587766 0
    outer loop
      vertex 3.30902 43.9511 3
      vertex 4 43 1.7
      vertex 4 43 3
    endloop
  endfacet
  facet normal 1 -0 0
    outer loop
      vertex 2.19098 42.4122 3
      vertex 2.19098 43.5878 1.7
      vertex 2.19098 43.5878 3
    endloop
  endfacet
  facet normal 1 0 0
    outer loop
      vertex 2.19098 43.5878 1.7
      vertex 2.19098 42.4122 3
      vertex 2.19098 42.4122 1.7
    endloop
  endfacet
  facet normal 0.309038 -0.95105 0
    outer loop
      vertex 2.19098 43.5878 1.7
      vertex 3.30902 43.9511 3
      vertex 2.19098 43.5878 3
    endloop
  endfacet
  facet normal 0.309038 -0.95105 0
    outer loop
      vertex 3.30902 43.9511 3
      vertex 2.19098 43.5878 1.7
      vertex 3.30902 43.9511 1.7
    endloop
  endfacet
  facet normal -0.809031 0.587766 0
    outer loop
      vertex 3.30902 42.0489 1.7
      vertex 4 43 3
      vertex 4 43 1.7
    endloop
  endfacet
  facet normal -0.809031 0.587766 0
    outer loop
      vertex 4 43 3
      vertex 3.30902 42.0489 1.7
      vertex 3.30902 42.0489 3
    endloop
  endfacet
  facet normal 0.309038 0.95105 -0
    outer loop
      vertex 3.30902 42.0489 1.7
      vertex 2.19098 42.4122 3
      vertex 3.30902 42.0489 3
    endloop
  endfacet
  facet normal 0.309038 0.95105 0
    outer loop
      vertex 2.19098 42.4122 3
      vertex 3.30902 42.0489 1.7
      vertex 2.19098 42.4122 1.7
    endloop
  endfacet
  facet normal -0.866026 -0.5 0
    outer loop
      vertex 5.29 43 0
      vertex 4.145 44.9832 1.7
      vertex 4.145 44.9832 0
    endloop
  endfacet
  facet normal -0.866026 -0.5 0
    outer loop
      vertex 4.145 44.9832 1.7
      vertex 5.29 43 0
      vertex 5.29 43 1.7
    endloop
  endfacet
  facet normal 0.866026 -0.5 0
    outer loop
      vertex 0.71 43 1.7
      vertex 1.855 44.9832 0
      vertex 1.855 44.9832 1.7
    endloop
  endfacet
  facet normal 0.866026 -0.5 0
    outer loop
      vertex 1.855 44.9832 0
      vertex 0.71 43 1.7
      vertex 0.71 43 0
    endloop
  endfacet
  facet normal 0 -1 0
    outer loop
      vertex 1.855 44.9832 0
      vertex 4.145 44.9832 1.7
      vertex 1.855 44.9832 1.7
    endloop
  endfacet
  facet normal 0 -1 -0
    outer loop
      vertex 4.145 44.9832 1.7
      vertex 1.855 44.9832 0
      vertex 4.145 44.9832 0
    endloop
  endfacet
  facet normal 0 0 -1
    outer loop
      vertex 4 43 1.7
      vertex 5.29 43 1.7
      vertex 4.145 41.0168 1.7
    endloop
  endfacet
  facet normal 0 0 -1
    outer loop
      vertex 5.29 43 1.7
      vertex 4 43 1.7
      vertex 4.145 44.9832 1.7
    endloop
  endfacet
  facet normal 0 0 -1
    outer loop
      vertex 4.145 41.0168 1.7
      vertex 3.30902 42.0489 1.7
      vertex 4 43 1.7
    endloop
  endfacet
  facet normal 0 0 -1
    outer loop
      vertex 1.855 41.0168 1.7
      vertex 3.30902 42.0489 1.7
      vertex 4.145 41.0168 1.7
    endloop
  endfacet
  facet normal 0 0 -1
    outer loop
      vertex 0.71 43 1.7
      vertex 2.19098 42.4122 1.7
      vertex 1.855 41.0168 1.7
    endloop
  endfacet
  facet normal -0 0 -1
    outer loop
      vertex 3.30902 42.0489 1.7
      vertex 1.855 41.0168 1.7
      vertex 2.19098 42.4122 1.7
    endloop
  endfacet
  facet normal 0 0 -1
    outer loop
      vertex 3.30902 43.9511 1.7
      vertex 4.145 44.9832 1.7
      vertex 4 43 1.7
    endloop
  endfacet
  facet normal 0 0 -1
    outer loop
      vertex 1.855 44.9832 1.7
      vertex 3.30902 43.9511 1.7
      vertex 2.19098 43.5878 1.7
    endloop
  endfacet
  facet normal 0 0 -1
    outer loop
      vertex 3.30902 43.9511 1.7
      vertex 1.855 44.9832 1.7
      vertex 4.145 44.9832 1.7
    endloop
  endfacet
  facet normal 0 0 -1
    outer loop
      vertex 2.19098 42.4122 1.7
      vertex 0.71 43 1.7
      vertex 2.19098 43.5878 1.7
    endloop
  endfacet
  facet normal -0 0 -1
    outer loop
      vertex 2.19098 43.5878 1.7
      vertex 0.71 43 1.7
      vertex 1.855 44.9832 1.7
    endloop
  endfacet
  facet normal -0.866026 0.5 0
    outer loop
      vertex 4.145 41.0168 0
      vertex 5.29 43 1.7
      vertex 5.29 43 0
    endloop
  endfacet
  facet normal -0.866026 0.5 0
    outer loop
      vertex 5.29 43 1.7
      vertex 4.145 41.0168 0
      vertex 4.145 41.0168 1.7
    endloop
  endfacet
  facet normal 0 1 -0
    outer loop
      vertex 4.145 41.0168 0
      vertex 1.855 41.0168 1.7
      vertex 4.145 41.0168 1.7
    endloop
  endfacet
  facet normal 0 1 0
    outer loop
      vertex 1.855 41.0168 1.7
      vertex 4.145 41.0168 0
      vertex 1.855 41.0168 0
    endloop
  endfacet
  facet normal 0.866026 0.5 0
    outer loop
      vertex 1.855 41.0168 1.7
      vertex 0.71 43 0
      vertex 0.71 43 1.7
    endloop
  endfacet
  facet normal 0.866026 0.5 0
    outer loop
      vertex 0.71 43 0
      vertex 1.855 41.0168 1.7
      vertex 1.855 41.0168 0
    endloop
  endfacet
  facet normal -0.809011 -0.587793 0
    outer loop
      vertex 48 5 1.7
      vertex 47.309 5.95106 3
      vertex 47.309 5.95106 1.7
    endloop
  endfacet
  facet normal -0.809011 -0.587793 0
    outer loop
      vertex 47.309 5.95106 3
      vertex 48 5 1.7
      vertex 48 5 3
    endloop
  endfacet
  facet normal 1 -0 0
    outer loop
      vertex 46.191 4.41222 3
      vertex 46.191 5.58778 1.7
      vertex 46.191 5.58778 3
    endloop
  endfacet
  facet normal 1 0 0
    outer loop
      vertex 46.191 5.58778 1.7
      vertex 46.191 4.41222 3
      vertex 46.191 4.41222 1.7
    endloop
  endfacet
  facet normal 0.309032 -0.951052 0
    outer loop
      vertex 46.191 5.58778 1.7
      vertex 47.309 5.95106 3
      vertex 46.191 5.58778 3
    endloop
  endfacet
  facet normal 0.309032 -0.951052 0
    outer loop
      vertex 47.309 5.95106 3
      vertex 46.191 5.58778 1.7
      vertex 47.309 5.95106 1.7
    endloop
  endfacet
  facet normal -0.809011 0.587793 0
    outer loop
      vertex 47.309 4.04894 1.7
      vertex 48 5 3
      vertex 48 5 1.7
    endloop
  endfacet
  facet normal -0.809011 0.587793 0
    outer loop
      vertex 48 5 3
      vertex 47.309 4.04894 1.7
      vertex 47.309 4.04894 3
    endloop
  endfacet
  facet normal 0.309032 0.951052 -0
    outer loop
      vertex 47.309 4.04894 1.7
      vertex 46.191 4.41222 3
      vertex 47.309 4.04894 3
    endloop
  endfacet
  facet normal 0.309032 0.951052 0
    outer loop
      vertex 46.191 4.41222 3
      vertex 47.309 4.04894 1.7
      vertex 46.191 4.41222 1.7
    endloop
  endfacet
  facet normal -0.866026 -0.5 0
    outer loop
      vertex 49.29 5 0
      vertex 48.145 6.9832 1.7
      vertex 48.145 6.9832 0
    endloop
  endfacet
  facet normal -0.866026 -0.5 0
    outer loop
      vertex 48.145 6.9832 1.7
      vertex 49.29 5 0
      vertex 49.29 5 1.7
    endloop
  endfacet
  facet normal 0.866026 -0.5 0
    outer loop
      vertex 44.71 5 1.7
      vertex 45.855 6.9832 0
      vertex 45.855 6.9832 1.7
    endloop
  endfacet
  facet normal 0.866026 -0.5 0
    outer loop
      vertex 45.855 6.9832 0
      vertex 44.71 5 1.7
      vertex 44.71 5 0
    endloop
  endfacet
  facet normal 0 -1 0
    outer loop
      vertex 45.855 6.9832 0
      vertex 48.145 6.9832 1.7
      vertex 45.855 6.9832 1.7
    endloop
  endfacet
  facet normal 0 -1 -0
    outer loop
      vertex 48.145 6.9832 1.7
      vertex 45.855 6.9832 0
      vertex 48.145 6.9832 0
    endloop
  endfacet
  facet normal 0 0 -1
    outer loop
      vertex 48 5 1.7
      vertex 49.29 5 1.7
      vertex 48.145 3.0168 1.7
    endloop
  endfacet
  facet normal 0 0 -1
    outer loop
      vertex 49.29 5 1.7
      vertex 48 5 1.7
      vertex 48.145 6.9832 1.7
    endloop
  endfacet
  facet normal 0 0 -1
    outer loop
      vertex 48.145 3.0168 1.7
      vertex 47.309 4.04894 1.7
      vertex 48 5 1.7
    endloop
  endfacet
  facet normal 0 0 -1
    outer loop
      vertex 45.855 3.0168 1.7
      vertex 47.309 4.04894 1.7
      vertex 48.145 3.0168 1.7
    endloop
  endfacet
  facet normal 0 0 -1
    outer loop
      vertex 44.71 5 1.7
      vertex 46.191 4.41222 1.7
      vertex 45.855 3.0168 1.7
    endloop
  endfacet
  facet normal -0 0 -1
    outer loop
      vertex 47.309 4.04894 1.7
      vertex 45.855 3.0168 1.7
      vertex 46.191 4.41222 1.7
    endloop
  endfacet
  facet normal 0 0 -1
    outer loop
      vertex 47.309 5.95106 1.7
      vertex 48.145 6.9832 1.7
      vertex 48 5 1.7
    endloop
  endfacet
  facet normal 0 0 -1
    outer loop
      vertex 45.855 6.9832 1.7
      vertex 47.309 5.95106 1.7
      vertex 46.191 5.58778 1.7
    endloop
  endfacet
  facet normal 0 0 -1
    outer loop
      vertex 47.309 5.95106 1.7
      vertex 45.855 6.9832 1.7
      vertex 48.145 6.9832 1.7
    endloop
  endfacet
  facet normal 0 0 -1
    outer loop
      vertex 46.191 4.41222 1.7
      vertex 44.71 5 1.7
      vertex 46.191 5.58778 1.7
    endloop
  endfacet
  facet normal -0 0 -1
    outer loop
      vertex 46.191 5.58778 1.7
      vertex 44.71 5 1.7
      vertex 45.855 6.9832 1.7
    endloop
  endfacet
  facet normal -0.866026 0.5 0
    outer loop
      vertex 48.145 3.0168 0
      vertex 49.29 5 1.7
      vertex 49.29 5 0
    endloop
  endfacet
  facet normal -0.866026 0.5 0
    outer loop
      vertex 49.29 5 1.7
      vertex 48.145 3.0168 0
      vertex 48.145 3.0168 1.7
    endloop
  endfacet
  facet normal 0 1 -0
    outer loop
      vertex 48.145 3.0168 0
      vertex 45.855 3.0168 1.7
      vertex 48.145 3.0168 1.7
    endloop
  endfacet
  facet normal 0 1 0
    outer loop
      vertex 45.855 3.0168 1.7
      vertex 48.145 3.0168 0
      vertex 45.855 3.0168 0
    endloop
  endfacet
  facet normal 0.866026 0.5 0
    outer loop
      vertex 45.855 3.0168 1.7
      vertex 44.71 5 0
      vertex 44.71 5 1.7
    endloop
  endfacet
  facet normal 0.866026 0.5 0
    outer loop
      vertex 44.71 5 0
      vertex 45.855 3.0168 1.7
      vertex 45.855 3.0168 0
    endloop
  endfacet
  facet normal -1 0 0
    outer loop
      vertex 0 0 0
      vertex 0 80 3
      vertex 0 80 0
    endloop
  endfacet
  facet normal -1 -0 0
    outer loop
      vertex 0 80 3
      vertex 0 0 0
      vertex 0 0 3
    endloop
  endfacet
  facet normal -0 0 1
    outer loop
      vertex 3.30902 5.95106 3
      vertex 46.191 5.58778 3
      vertex 3.30902 42.0489 3
    endloop
  endfacet
  facet normal 0 0 1
    outer loop
      vertex 46.191 5.58778 3
      vertex 3.30902 5.95106 3
      vertex 4 5 3
    endloop
  endfacet
  facet normal 0 0 1
    outer loop
      vertex 2.19098 42.4122 3
      vertex 3.30902 5.95106 3
      vertex 3.30902 42.0489 3
    endloop
  endfacet
  facet normal 0 0 1
    outer loop
      vertex 3.30902 5.95106 3
      vertex 2.19098 42.4122 3
      vertex 2.19098 5.58778 3
    endloop
  endfacet
  facet normal -0 0 1
    outer loop
      vertex 47.309 42.0489 3
      vertex 48 5 3
      vertex 48 43 3
    endloop
  endfacet
  facet normal 0 0 1
    outer loop
      vertex 47.309 42.0489 3
      vertex 47.309 5.95106 3
      vertex 48 5 3
    endloop
  endfacet
  facet normal 0 0 1
    outer loop
      vertex 46.191 42.4122 3
      vertex 47.309 5.95106 3
      vertex 47.309 42.0489 3
    endloop
  endfacet
  facet normal 0 0 1
    outer loop
      vertex 47.309 5.95106 3
      vertex 46.191 42.4122 3
      vertex 46.191 5.58778 3
    endloop
  endfacet
  facet normal 0 0 1
    outer loop
      vertex 50 80 3
      vertex 48 43 3
      vertex 50 0 3
    endloop
  endfacet
  facet normal 0 0 1
    outer loop
      vertex 50 80 3
      vertex 47.309 43.9511 3
      vertex 48 43 3
    endloop
  endfacet
  facet normal 0 0 1
    outer loop
      vertex 50 80 3
      vertex 46.191 43.5878 3
      vertex 47.309 43.9511 3
    endloop
  endfacet
  facet normal -0 0 1
    outer loop
      vertex 4 43 3
      vertex 46.191 42.4122 3
      vertex 46.191 43.5878 3
    endloop
  endfacet
  facet normal 0 0 1
    outer loop
      vertex 3.30902 42.0489 3
      vertex 46.191 42.4122 3
      vertex 4 43 3
    endloop
  endfacet
  facet normal 0 0 1
    outer loop
      vertex 46.191 42.4122 3
      vertex 3.30902 42.0489 3
      vertex 46.191 5.58778 3
    endloop
  endfacet
  facet normal -0 0 1
    outer loop
      vertex 3.30902 43.9511 3
      vertex 46.191 43.5878 3
      vertex 50 80 3
    endloop
  endfacet
  facet normal 0 0 1
    outer loop
      vertex 46.191 43.5878 3
      vertex 3.30902 43.9511 3
      vertex 4 43 3
    endloop
  endfacet
  facet normal -0 0 1
    outer loop
      vertex 0 80 3
      vertex 3.30902 43.9511 3
      vertex 50 80 3
    endloop
  endfacet
  facet normal 0 0 1
    outer loop
      vertex 0 0 3
      vertex 2.19098 42.4122 3
      vertex 2.19098 43.5878 3
    endloop
  endfacet
  facet normal 0 0 1
    outer loop
      vertex 2.19098 42.4122 3
      vertex 0 0 3
      vertex 2.19098 5.58778 3
    endloop
  endfacet
  facet normal 0 0 1
    outer loop
      vertex 0 0 3
      vertex 2.19098 43.5878 3
      vertex 0 80 3
    endloop
  endfacet
  facet normal 0 0 1
    outer loop
      vertex 3.30902 43.9511 3
      vertex 0 80 3
      vertex 2.19098 43.5878 3
    endloop
  endfacet
  facet normal -0 0 1
    outer loop
      vertex 48 5 3
      vertex 50 0 3
      vertex 48 43 3
    endloop
  endfacet
  facet normal -0 0 1
    outer loop
      vertex 47.309 4.04894 3
      vertex 50 0 3
      vertex 48 5 3
    endloop
  endfacet
  facet normal 0 0 1
    outer loop
      vertex 46.191 4.41222 3
      vertex 50 0 3
      vertex 47.309 4.04894 3
    endloop
  endfacet
  facet normal 0 0 1
    outer loop
      vertex 46.191 5.58778 3
      vertex 4 5 3
      vertex 46.191 4.41222 3
    endloop
  endfacet
  facet normal 0 0 1
    outer loop
      vertex 3.30902 4.04894 3
      vertex 46.191 4.41222 3
      vertex 4 5 3
    endloop
  endfacet
  facet normal 0 0 1
    outer loop
      vertex 0 0 3
      vertex 46.191 4.41222 3
      vertex 3.30902 4.04894 3
    endloop
  endfacet
  facet normal 0 0 1
    outer loop
      vertex 46.191 4.41222 3
      vertex 0 0 3
      vertex 50 0 3
    endloop
  endfacet
  facet normal 0 0 1
    outer loop
      vertex 2.19098 4.41222 3
      vertex 0 0 3
      vertex 3.30902 4.04894 3
    endloop
  endfacet
  facet normal 0 0 1
    outer loop
      vertex 2.19098 5.58778 3
      vertex 0 0 3
      vertex 2.19098 4.41222 3
    endloop
  endfacet
  facet normal 1 -0 0
    outer loop
      vertex 50 0 3
      vertex 50 80 0
      vertex 50 80 3
    endloop
  endfacet
  facet normal 1 0 0
    outer loop
      vertex 50 80 0
      vertex 50 0 3
      vertex 50 0 0
    endloop
  endfacet
  facet normal 0 1 -0
    outer loop
      vertex 50 80 0
      vertex 0 80 3
      vertex 50 80 3
    endloop
  endfacet
  facet normal 0 1 0
    outer loop
      vertex 0 80 3
      vertex 50 80 0
      vertex 0 80 0
    endloop
  endfacet
  facet normal 0 -1 0
    outer loop
      vertex 0 0 0
      vertex 50 0 3
      vertex 0 0 3
    endloop
  endfacet
  facet normal 0 -1 -0
    outer loop
      vertex 50 0 3
      vertex 0 0 0
      vertex 50 0 0
    endloop
  endfacet
endsolid OpenSCAD_Model
