solid OpenSCAD_Model
  facet normal -1 0 0
    outer loop
      vertex -10 3 0
      vertex -10 -10 7
      vertex -10 3 1
    endloop
  endfacet
  facet normal -1 0 0
    outer loop
      vertex -10 -14 0
      vertex -10 -10 7
      vertex -10 3 0
    endloop
  endfacet
  facet normal -1 0 0
    outer loop
      vertex -10 -14 60
      vertex -10 -10 7
      vertex -10 -14 0
    endloop
  endfacet
  facet normal -1 0 0
    outer loop
      vertex -10 -10 7
      vertex -10 -14 60
      vertex -10 -10 60
    endloop
  endfacet
  facet normal -1 0 0
    outer loop
      vertex -10 3 1
      vertex -10 10 7
      vertex -10 10 1
    endloop
  endfacet
  facet normal -1 -0 0
    outer loop
      vertex -10 10 7
      vertex -10 3 1
      vertex -10 -10 7
    endloop
  endfacet
  facet normal -0 0 1
    outer loop
      vertex -10 -10 60
      vertex 10 -14 60
      vertex 10 -10 60
    endloop
  endfacet
  facet normal 0 0 1
    outer loop
      vertex 10 -14 60
      vertex -10 -10 60
      vertex -10 -14 60
    endloop
  endfacet
  facet normal 1 0 0
    outer loop
      vertex 10 -10 60
      vertex 10 -14 60
      vertex 10 -10 7
    endloop
  endfacet
  facet normal 1 0 0
    outer loop
      vertex 10 10 7
      vertex 10 3 1
      vertex 10 10 1
    endloop
  endfacet
  facet normal 1 -0 0
    outer loop
      vertex 10 -10 7
      vertex 10 3 1
      vertex 10 10 7
    endloop
  endfacet
  facet normal 1 0 0
    outer loop
      vertex 10 -10 7
      vertex 10 3 0
      vertex 10 3 1
    endloop
  endfacet
  facet normal 1 0 0
    outer loop
      vertex 10 -10 7
      vertex 10 -14 0
      vertex 10 3 0
    endloop
  endfacet
  facet normal 1 0 0
    outer loop
      vertex 10 -14 0
      vertex 10 -10 7
      vertex 10 -14 60
    endloop
  endfacet
  facet normal 0 1 0
    outer loop
      vertex 10 -10 60
      vertex 0.271773 -10 47.5858
      vertex -10 -10 60
    endloop
  endfacet
  facet normal 0 1 0
    outer loop
      vertex 10 -10 60
      vertex 0.803444 -10 47.4727
      vertex 0.271773 -10 47.5858
    endloop
  endfacet
  facet normal 0 1 0
    outer loop
      vertex 10 -10 60
      vertex 1.3 -10 47.2517
      vertex 0.803444 -10 47.4727
    endloop
  endfacet
  facet normal 0 1 0
    outer loop
      vertex 10 -10 60
      vertex 1.73974 -10 46.9322
      vertex 1.3 -10 47.2517
    endloop
  endfacet
  facet normal 0 1 0
    outer loop
      vertex 10 -10 60
      vertex 2.10344 -10 46.5282
      vertex 1.73974 -10 46.9322
    endloop
  endfacet
  facet normal 0 1 0
    outer loop
      vertex 10 -10 60
      vertex 2.37522 -10 46.0575
      vertex 2.10344 -10 46.5282
    endloop
  endfacet
  facet normal 0 1 0
    outer loop
      vertex 10 -10 60
      vertex 2.54318 -10 45.5406
      vertex 2.37522 -10 46.0575
    endloop
  endfacet
  facet normal 0 1 0
    outer loop
      vertex 10 -10 60
      vertex 2.6 -10 45
      vertex 2.54318 -10 45.5406
    endloop
  endfacet
  facet normal 0 1 0
    outer loop
      vertex 10 -10 60
      vertex 2.54318 -10 44.4594
      vertex 2.6 -10 45
    endloop
  endfacet
  facet normal 0 1 0
    outer loop
      vertex 2.54318 -10 30.5406
      vertex 2.54318 -10 44.4594
      vertex 10 -10 60
    endloop
  endfacet
  facet normal 0 1 0
    outer loop
      vertex 0.271773 -10 42.4142
      vertex 0.271773 -10 32.5858
      vertex -0.271773 -10 42.4142
    endloop
  endfacet
  facet normal 0 1 0
    outer loop
      vertex 0.803444 -10 42.5273
      vertex 0.271773 -10 32.5858
      vertex 0.271773 -10 42.4142
    endloop
  endfacet
  facet normal 0 1 0
    outer loop
      vertex 0.803444 -10 32.4727
      vertex 0.803444 -10 42.5273
      vertex 1.3 -10 42.7483
    endloop
  endfacet
  facet normal 0 1 0
    outer loop
      vertex 1.3 -10 32.2517
      vertex 1.3 -10 42.7483
      vertex 1.73974 -10 43.0678
    endloop
  endfacet
  facet normal 0 1 0
    outer loop
      vertex 1.73974 -10 31.9322
      vertex 1.73974 -10 43.0678
      vertex 2.10344 -10 43.4718
    endloop
  endfacet
  facet normal 0 1 0
    outer loop
      vertex 2.10344 -10 31.5282
      vertex 2.10344 -10 43.4718
      vertex 2.37522 -10 43.9425
    endloop
  endfacet
  facet normal 0 1 0
    outer loop
      vertex 2.54318 -10 44.4594
      vertex 2.54318 -10 30.5406
      vertex 2.37522 -10 43.9425
    endloop
  endfacet
  facet normal 0 1 0
    outer loop
      vertex 0.803444 -10 42.5273
      vertex 0.803444 -10 32.4727
      vertex 0.271773 -10 32.5858
    endloop
  endfacet
  facet normal 0 1 0
    outer loop
      vertex 1.3 -10 42.7483
      vertex 1.3 -10 32.2517
      vertex 0.803444 -10 32.4727
    endloop
  endfacet
  facet normal 0 1 0
    outer loop
      vertex 1.73974 -10 43.0678
      vertex 1.73974 -10 31.9322
      vertex 1.3 -10 32.2517
    endloop
  endfacet
  facet normal 0 1 0
    outer loop
      vertex 2.10344 -10 43.4718
      vertex 2.10344 -10 31.5282
      vertex 1.73974 -10 31.9322
    endloop
  endfacet
  facet normal 0 1 0
    outer loop
      vertex 2.37522 -10 43.9425
      vertex 2.37522 -10 31.0575
      vertex 2.10344 -10 31.5282
    endloop
  endfacet
  facet normal 0 1 0
    outer loop
      vertex 2.37522 -10 43.9425
      vertex 2.54318 -10 30.5406
      vertex 2.37522 -10 31.0575
    endloop
  endfacet
  facet normal 0 1 0
    outer loop
      vertex 10 -10 60
      vertex 2.6 -10 30
      vertex 2.54318 -10 30.5406
    endloop
  endfacet
  facet normal 0 1 -0
    outer loop
      vertex 10 -10 7
      vertex 2.6 -10 30
      vertex 10 -10 60
    endloop
  endfacet
  facet normal 0 1 0
    outer loop
      vertex 0.271773 -10 27.4142
      vertex 0.271773 -10 17.5858
      vertex -0.271773 -10 27.4142
    endloop
  endfacet
  facet normal 0 1 0
    outer loop
      vertex 0.803444 -10 27.5273
      vertex 0.271773 -10 17.5858
      vertex 0.271773 -10 27.4142
    endloop
  endfacet
  facet normal 0 1 0
    outer loop
      vertex 0.803444 -10 17.4727
      vertex 0.803444 -10 27.5273
      vertex 1.3 -10 27.7483
    endloop
  endfacet
  facet normal 0 1 0
    outer loop
      vertex 1.3 -10 17.2517
      vertex 1.3 -10 27.7483
      vertex 1.73974 -10 28.0678
    endloop
  endfacet
  facet normal 0 1 0
    outer loop
      vertex 1.73974 -10 16.9322
      vertex 1.73974 -10 28.0678
      vertex 2.10344 -10 28.4718
    endloop
  endfacet
  facet normal 0 1 0
    outer loop
      vertex 2.10344 -10 16.5282
      vertex 2.10344 -10 28.4718
      vertex 2.37522 -10 28.9425
    endloop
  endfacet
  facet normal 0 1 0
    outer loop
      vertex 10 -10 7
      vertex 2.37522 -10 28.9425
      vertex 2.54318 -10 29.4594
    endloop
  endfacet
  facet normal 0 1 0
    outer loop
      vertex 2.6 -10 30
      vertex 10 -10 7
      vertex 2.54318 -10 29.4594
    endloop
  endfacet
  facet normal 0 1 0
    outer loop
      vertex 0.803444 -10 27.5273
      vertex 0.803444 -10 17.4727
      vertex 0.271773 -10 17.5858
    endloop
  endfacet
  facet normal 0 1 0
    outer loop
      vertex 1.3 -10 27.7483
      vertex 1.3 -10 17.2517
      vertex 0.803444 -10 17.4727
    endloop
  endfacet
  facet normal 0 1 0
    outer loop
      vertex 1.73974 -10 28.0678
      vertex 1.73974 -10 16.9322
      vertex 1.3 -10 17.2517
    endloop
  endfacet
  facet normal 0 1 0
    outer loop
      vertex 2.10344 -10 28.4718
      vertex 2.10344 -10 16.5282
      vertex 1.73974 -10 16.9322
    endloop
  endfacet
  facet normal 0 1 0
    outer loop
      vertex 2.37522 -10 28.9425
      vertex 2.37522 -10 16.0575
      vertex 2.10344 -10 16.5282
    endloop
  endfacet
  facet normal 0 1 0
    outer loop
      vertex 2.37522 -10 28.9425
      vertex 10 -10 7
      vertex 2.37522 -10 16.0575
    endloop
  endfacet
  facet normal 0 1 0
    outer loop
      vertex 2.37522 -10 16.0575
      vertex 10 -10 7
      vertex 2.54318 -10 15.5406
    endloop
  endfacet
  facet normal 0 1 0
    outer loop
      vertex 2.54318 -10 15.5406
      vertex 10 -10 7
      vertex 2.6 -10 15
    endloop
  endfacet
  facet normal 0 1 0
    outer loop
      vertex 0.271773 -10 12.4142
      vertex 10 -10 7
      vertex -0.271773 -10 12.4142
    endloop
  endfacet
  facet normal 0 1 0
    outer loop
      vertex 0.803444 -10 12.5273
      vertex 10 -10 7
      vertex 0.271773 -10 12.4142
    endloop
  endfacet
  facet normal 0 1 0
    outer loop
      vertex 1.3 -10 12.7483
      vertex 10 -10 7
      vertex 0.803444 -10 12.5273
    endloop
  endfacet
  facet normal 0 1 0
    outer loop
      vertex 1.73974 -10 13.0678
      vertex 10 -10 7
      vertex 1.3 -10 12.7483
    endloop
  endfacet
  facet normal 0 1 0
    outer loop
      vertex 2.10344 -10 13.4718
      vertex 10 -10 7
      vertex 1.73974 -10 13.0678
    endloop
  endfacet
  facet normal 0 1 0
    outer loop
      vertex 2.37522 -10 13.9425
      vertex 10 -10 7
      vertex 2.10344 -10 13.4718
    endloop
  endfacet
  facet normal 0 1 0
    outer loop
      vertex 2.54318 -10 14.4594
      vertex 10 -10 7
      vertex 2.37522 -10 13.9425
    endloop
  endfacet
  facet normal 0 1 0
    outer loop
      vertex 2.6 -10 15
      vertex 10 -10 7
      vertex 2.54318 -10 14.4594
    endloop
  endfacet
  facet normal 0 1 -0
    outer loop
      vertex -0.271773 -10 47.5858
      vertex -10 -10 60
      vertex 0.271773 -10 47.5858
    endloop
  endfacet
  facet normal 0 1 -0
    outer loop
      vertex -0.803444 -10 47.4727
      vertex -10 -10 60
      vertex -0.271773 -10 47.5858
    endloop
  endfacet
  facet normal 0 1 -0
    outer loop
      vertex -1.3 -10 47.2517
      vertex -10 -10 60
      vertex -0.803444 -10 47.4727
    endloop
  endfacet
  facet normal 0 1 -0
    outer loop
      vertex -1.73974 -10 46.9322
      vertex -10 -10 60
      vertex -1.3 -10 47.2517
    endloop
  endfacet
  facet normal 0 1 -0
    outer loop
      vertex -2.10344 -10 46.5282
      vertex -10 -10 60
      vertex -1.73974 -10 46.9322
    endloop
  endfacet
  facet normal 0 1 -0
    outer loop
      vertex -2.37522 -10 46.0575
      vertex -10 -10 60
      vertex -2.10344 -10 46.5282
    endloop
  endfacet
  facet normal 0 1 -0
    outer loop
      vertex -2.54318 -10 45.5406
      vertex -10 -10 60
      vertex -2.37522 -10 46.0575
    endloop
  endfacet
  facet normal 0 1 -0
    outer loop
      vertex -2.6 -10 45
      vertex -10 -10 60
      vertex -2.54318 -10 45.5406
    endloop
  endfacet
  facet normal 0 1 0
    outer loop
      vertex -2.54318 -10 44.4594
      vertex -10 -10 60
      vertex -2.6 -10 45
    endloop
  endfacet
  facet normal 0 1 0
    outer loop
      vertex -2.54318 -10 30.5406
      vertex -2.54318 -10 44.4594
      vertex -2.37522 -10 43.9425
    endloop
  endfacet
  facet normal 0 1 0
    outer loop
      vertex -0.271773 -10 32.5858
      vertex -0.271773 -10 42.4142
      vertex 0.271773 -10 32.5858
    endloop
  endfacet
  facet normal 0 1 0
    outer loop
      vertex -0.271773 -10 42.4142
      vertex -0.271773 -10 32.5858
      vertex -0.803444 -10 42.5273
    endloop
  endfacet
  facet normal 0 1 0
    outer loop
      vertex -0.803444 -10 32.4727
      vertex -0.803444 -10 42.5273
      vertex -0.271773 -10 32.5858
    endloop
  endfacet
  facet normal 0 1 0
    outer loop
      vertex -0.803444 -10 42.5273
      vertex -0.803444 -10 32.4727
      vertex -1.3 -10 42.7483
    endloop
  endfacet
  facet normal 0 1 0
    outer loop
      vertex -1.3 -10 32.2517
      vertex -1.3 -10 42.7483
      vertex -0.803444 -10 32.4727
    endloop
  endfacet
  facet normal 0 1 0
    outer loop
      vertex -1.3 -10 42.7483
      vertex -1.3 -10 32.2517
      vertex -1.73974 -10 43.0678
    endloop
  endfacet
  facet normal 0 1 0
    outer loop
      vertex -1.73974 -10 31.9322
      vertex -1.73974 -10 43.0678
      vertex -1.3 -10 32.2517
    endloop
  endfacet
  facet normal 0 1 0
    outer loop
      vertex -1.73974 -10 43.0678
      vertex -1.73974 -10 31.9322
      vertex -2.10344 -10 43.4718
    endloop
  endfacet
  facet normal 0 1 0
    outer loop
      vertex -2.10344 -10 31.5282
      vertex -2.10344 -10 43.4718
      vertex -1.73974 -10 31.9322
    endloop
  endfacet
  facet normal 0 1 0
    outer loop
      vertex -2.10344 -10 43.4718
      vertex -2.10344 -10 31.5282
      vertex -2.37522 -10 43.9425
    endloop
  endfacet
  facet normal 0 1 0
    outer loop
      vertex -2.37522 -10 31.0575
      vertex -2.37522 -10 43.9425
      vertex -2.10344 -10 31.5282
    endloop
  endfacet
  facet normal 0 1 0
    outer loop
      vertex -2.54318 -10 30.5406
      vertex -2.37522 -10 43.9425
      vertex -2.37522 -10 31.0575
    endloop
  endfacet
  facet normal 0 1 0
    outer loop
      vertex -2.54318 -10 44.4594
      vertex -2.54318 -10 30.5406
      vertex -10 -10 60
    endloop
  endfacet
  facet normal 0 1 -0
    outer loop
      vertex -2.6 -10 30
      vertex -10 -10 60
      vertex -2.54318 -10 30.5406
    endloop
  endfacet
  facet normal 0 1 0
    outer loop
      vertex -10 -10 7
      vertex -2.6 -10 30
      vertex -2.54318 -10 29.4594
    endloop
  endfacet
  facet normal 0 1 0
    outer loop
      vertex -0.271773 -10 17.5858
      vertex -0.271773 -10 27.4142
      vertex 0.271773 -10 17.5858
    endloop
  endfacet
  facet normal 0 1 0
    outer loop
      vertex -0.271773 -10 27.4142
      vertex -0.271773 -10 17.5858
      vertex -0.803444 -10 27.5273
    endloop
  endfacet
  facet normal 0 1 0
    outer loop
      vertex -0.803444 -10 17.4727
      vertex -0.803444 -10 27.5273
      vertex -0.271773 -10 17.5858
    endloop
  endfacet
  facet normal 0 1 0
    outer loop
      vertex -0.803444 -10 27.5273
      vertex -0.803444 -10 17.4727
      vertex -1.3 -10 27.7483
    endloop
  endfacet
  facet normal 0 1 0
    outer loop
      vertex -1.3 -10 17.2517
      vertex -1.3 -10 27.7483
      vertex -0.803444 -10 17.4727
    endloop
  endfacet
  facet normal 0 1 0
    outer loop
      vertex -1.3 -10 27.7483
      vertex -1.3 -10 17.2517
      vertex -1.73974 -10 28.0678
    endloop
  endfacet
  facet normal 0 1 0
    outer loop
      vertex -1.73974 -10 16.9322
      vertex -1.73974 -10 28.0678
      vertex -1.3 -10 17.2517
    endloop
  endfacet
  facet normal 0 1 0
    outer loop
      vertex -1.73974 -10 28.0678
      vertex -1.73974 -10 16.9322
      vertex -2.10344 -10 28.4718
    endloop
  endfacet
  facet normal 0 1 0
    outer loop
      vertex -2.10344 -10 16.5282
      vertex -2.10344 -10 28.4718
      vertex -1.73974 -10 16.9322
    endloop
  endfacet
  facet normal 0 1 0
    outer loop
      vertex -2.10344 -10 28.4718
      vertex -2.10344 -10 16.5282
      vertex -2.37522 -10 28.9425
    endloop
  endfacet
  facet normal 0 1 0
    outer loop
      vertex -2.37522 -10 16.0575
      vertex -2.37522 -10 28.9425
      vertex -2.10344 -10 16.5282
    endloop
  endfacet
  facet normal 0 1 0
    outer loop
      vertex -10 -10 7
      vertex -2.37522 -10 28.9425
      vertex -2.37522 -10 16.0575
    endloop
  endfacet
  facet normal 0 1 0
    outer loop
      vertex -2.37522 -10 28.9425
      vertex -10 -10 7
      vertex -2.54318 -10 29.4594
    endloop
  endfacet
  facet normal 0 1 0
    outer loop
      vertex -10 -10 7
      vertex -2.37522 -10 16.0575
      vertex -2.54318 -10 15.5406
    endloop
  endfacet
  facet normal 0 1 0
    outer loop
      vertex -10 -10 7
      vertex -2.54318 -10 15.5406
      vertex -2.6 -10 15
    endloop
  endfacet
  facet normal 0 1 0
    outer loop
      vertex -10 -10 7
      vertex -2.6 -10 15
      vertex -2.54318 -10 14.4594
    endloop
  endfacet
  facet normal 0 1 0
    outer loop
      vertex -10 -10 7
      vertex -0.271773 -10 12.4142
      vertex 10 -10 7
    endloop
  endfacet
  facet normal 0 1 0
    outer loop
      vertex -0.271773 -10 12.4142
      vertex -10 -10 7
      vertex -0.803444 -10 12.5273
    endloop
  endfacet
  facet normal 0 1 0
    outer loop
      vertex -2.6 -10 30
      vertex -10 -10 7
      vertex -10 -10 60
    endloop
  endfacet
  facet normal 0 1 0
    outer loop
      vertex -2.37522 -10 13.9425
      vertex -10 -10 7
      vertex -2.54318 -10 14.4594
    endloop
  endfacet
  facet normal 0 1 0
    outer loop
      vertex -2.10344 -10 13.4718
      vertex -10 -10 7
      vertex -2.37522 -10 13.9425
    endloop
  endfacet
  facet normal 0 1 0
    outer loop
      vertex -1.73974 -10 13.0678
      vertex -10 -10 7
      vertex -2.10344 -10 13.4718
    endloop
  endfacet
  facet normal 0 1 0
    outer loop
      vertex -1.3 -10 12.7483
      vertex -10 -10 7
      vertex -1.73974 -10 13.0678
    endloop
  endfacet
  facet normal 0 1 0
    outer loop
      vertex -0.803444 -10 12.5273
      vertex -10 -10 7
      vertex -1.3 -10 12.7483
    endloop
  endfacet
  facet normal 0 0 -1
    outer loop
      vertex 5.16153 -2.29806 0
      vertex 10 3 0
      vertex 10 -14 0
    endloop
  endfacet
  facet normal 0 0 -1
    outer loop
      vertex 10 3 0
      vertex 5.52653 -1.1747 0
      vertex 5.65 0 0
    endloop
  endfacet
  facet normal 0 0 -1
    outer loop
      vertex 10 3 0
      vertex 5.16153 -2.29806 0
      vertex 5.52653 -1.1747 0
    endloop
  endfacet
  facet normal 0 0 -1
    outer loop
      vertex 10 -14 0
      vertex 4.57095 -3.32099 0
      vertex 5.16153 -2.29806 0
    endloop
  endfacet
  facet normal 0 0 -1
    outer loop
      vertex 10 -14 0
      vertex 3.78059 -4.19877 0
      vertex 4.57095 -3.32099 0
    endloop
  endfacet
  facet normal 0 0 -1
    outer loop
      vertex 10 -14 0
      vertex 2.825 -4.89304 0
      vertex 3.78059 -4.19877 0
    endloop
  endfacet
  facet normal 0 0 -1
    outer loop
      vertex 10 -14 0
      vertex 1.74595 -5.37347 0
      vertex 2.825 -4.89304 0
    endloop
  endfacet
  facet normal 0 0 -1
    outer loop
      vertex 10 -14 0
      vertex 0.590586 -5.61905 0
      vertex 1.74595 -5.37347 0
    endloop
  endfacet
  facet normal 0 0 -1
    outer loop
      vertex 10 -14 0
      vertex -0.590586 -5.61905 0
      vertex 0.590586 -5.61905 0
    endloop
  endfacet
  facet normal 0 0 -1
    outer loop
      vertex -10 -14 0
      vertex -0.590586 -5.61905 0
      vertex 10 -14 0
    endloop
  endfacet
  facet normal -0 0 -1
    outer loop
      vertex -0.590586 -5.61905 0
      vertex -10 -14 0
      vertex -1.74595 -5.37347 0
    endloop
  endfacet
  facet normal -0 0 -1
    outer loop
      vertex -1.74595 -5.37347 0
      vertex -10 -14 0
      vertex -2.825 -4.89304 0
    endloop
  endfacet
  facet normal 0 0 -1
    outer loop
      vertex -10 -14 0
      vertex -3.78059 -4.19877 0
      vertex -2.825 -4.89304 0
    endloop
  endfacet
  facet normal 0 0 -1
    outer loop
      vertex -10 -14 0
      vertex -4.57095 -3.32099 0
      vertex -3.78059 -4.19877 0
    endloop
  endfacet
  facet normal 0 0 -1
    outer loop
      vertex -10 -14 0
      vertex -5.16153 -2.29806 0
      vertex -4.57095 -3.32099 0
    endloop
  endfacet
  facet normal 0 0 -1
    outer loop
      vertex -10 3 0
      vertex -5.16153 -2.29806 0
      vertex -10 -14 0
    endloop
  endfacet
  facet normal 0 0 -1
    outer loop
      vertex -5.16153 -2.29806 0
      vertex -10 3 0
      vertex -5.52653 -1.1747 0
    endloop
  endfacet
  facet normal 0 0 -1
    outer loop
      vertex -5.52653 -1.1747 0
      vertex -10 3 0
      vertex -5.65 0 0
    endloop
  endfacet
  facet normal 0 0 -1
    outer loop
      vertex -5.65 0 0
      vertex -10 3 0
      vertex -5.65 3 0
    endloop
  endfacet
  facet normal -0 0 -1
    outer loop
      vertex 10 3 0
      vertex 5.65 0 0
      vertex 5.65 3 0
    endloop
  endfacet
  facet normal 0 -1 0
    outer loop
      vertex -10 -14 60
      vertex -0.271773 -14 47.5858
      vertex 10 -14 60
    endloop
  endfacet
  facet normal 0 -1 0
    outer loop
      vertex -10 -14 60
      vertex -0.803444 -14 47.4727
      vertex -0.271773 -14 47.5858
    endloop
  endfacet
  facet normal 0 -1 0
    outer loop
      vertex -10 -14 60
      vertex -1.3 -14 47.2517
      vertex -0.803444 -14 47.4727
    endloop
  endfacet
  facet normal 0 -1 0
    outer loop
      vertex -10 -14 60
      vertex -1.73974 -14 46.9322
      vertex -1.3 -14 47.2517
    endloop
  endfacet
  facet normal 0 -1 0
    outer loop
      vertex -10 -14 60
      vertex -2.10344 -14 46.5282
      vertex -1.73974 -14 46.9322
    endloop
  endfacet
  facet normal 0 -1 0
    outer loop
      vertex -10 -14 60
      vertex -2.37522 -14 46.0575
      vertex -2.10344 -14 46.5282
    endloop
  endfacet
  facet normal 0 -1 0
    outer loop
      vertex -10 -14 60
      vertex -2.54318 -14 45.5406
      vertex -2.37522 -14 46.0575
    endloop
  endfacet
  facet normal 0 -1 0
    outer loop
      vertex -10 -14 60
      vertex -2.6 -14 45
      vertex -2.54318 -14 45.5406
    endloop
  endfacet
  facet normal 0 -1 0
    outer loop
      vertex -10 -14 60
      vertex -2.54318 -14 44.4594
      vertex -2.6 -14 45
    endloop
  endfacet
  facet normal 0 -1 0
    outer loop
      vertex -2.54318 -14 30.5406
      vertex -2.54318 -14 44.4594
      vertex -10 -14 60
    endloop
  endfacet
  facet normal 0 -1 0
    outer loop
      vertex -0.271773 -14 42.4142
      vertex -0.271773 -14 32.5858
      vertex 0.271773 -14 42.4142
    endloop
  endfacet
  facet normal 0 -1 0
    outer loop
      vertex -0.803444 -14 42.5273
      vertex -0.271773 -14 32.5858
      vertex -0.271773 -14 42.4142
    endloop
  endfacet
  facet normal 0 -1 0
    outer loop
      vertex -0.803444 -14 32.4727
      vertex -0.803444 -14 42.5273
      vertex -1.3 -14 42.7483
    endloop
  endfacet
  facet normal 0 -1 0
    outer loop
      vertex -1.3 -14 32.2517
      vertex -1.3 -14 42.7483
      vertex -1.73974 -14 43.0678
    endloop
  endfacet
  facet normal 0 -1 0
    outer loop
      vertex -1.73974 -14 31.9322
      vertex -1.73974 -14 43.0678
      vertex -2.10344 -14 43.4718
    endloop
  endfacet
  facet normal 0 -1 0
    outer loop
      vertex -2.10344 -14 31.5282
      vertex -2.10344 -14 43.4718
      vertex -2.37522 -14 43.9425
    endloop
  endfacet
  facet normal 0 -1 0
    outer loop
      vertex -2.54318 -14 44.4594
      vertex -2.54318 -14 30.5406
      vertex -2.37522 -14 43.9425
    endloop
  endfacet
  facet normal 0 -1 0
    outer loop
      vertex -0.803444 -14 42.5273
      vertex -0.803444 -14 32.4727
      vertex -0.271773 -14 32.5858
    endloop
  endfacet
  facet normal 0 -1 0
    outer loop
      vertex -1.3 -14 42.7483
      vertex -1.3 -14 32.2517
      vertex -0.803444 -14 32.4727
    endloop
  endfacet
  facet normal 0 -1 0
    outer loop
      vertex -1.73974 -14 43.0678
      vertex -1.73974 -14 31.9322
      vertex -1.3 -14 32.2517
    endloop
  endfacet
  facet normal 0 -1 0
    outer loop
      vertex -2.10344 -14 43.4718
      vertex -2.10344 -14 31.5282
      vertex -1.73974 -14 31.9322
    endloop
  endfacet
  facet normal 0 -1 0
    outer loop
      vertex -2.37522 -14 43.9425
      vertex -2.37522 -14 31.0575
      vertex -2.10344 -14 31.5282
    endloop
  endfacet
  facet normal 0 -1 -0
    outer loop
      vertex -2.37522 -14 43.9425
      vertex -2.54318 -14 30.5406
      vertex -2.37522 -14 31.0575
    endloop
  endfacet
  facet normal 0 -1 0
    outer loop
      vertex -10 -14 60
      vertex -2.6 -14 30
      vertex -2.54318 -14 30.5406
    endloop
  endfacet
  facet normal 0 -1 0
    outer loop
      vertex -10 -14 0
      vertex -2.6 -14 30
      vertex -10 -14 60
    endloop
  endfacet
  facet normal 0 -1 0
    outer loop
      vertex -0.271773 -14 27.4142
      vertex -0.271773 -14 17.5858
      vertex 0.271773 -14 27.4142
    endloop
  endfacet
  facet normal 0 -1 0
    outer loop
      vertex -0.803444 -14 27.5273
      vertex -0.271773 -14 17.5858
      vertex -0.271773 -14 27.4142
    endloop
  endfacet
  facet normal 0 -1 0
    outer loop
      vertex -0.803444 -14 17.4727
      vertex -0.803444 -14 27.5273
      vertex -1.3 -14 27.7483
    endloop
  endfacet
  facet normal 0 -1 0
    outer loop
      vertex -1.3 -14 17.2517
      vertex -1.3 -14 27.7483
      vertex -1.73974 -14 28.0678
    endloop
  endfacet
  facet normal 0 -1 0
    outer loop
      vertex -1.73974 -14 16.9322
      vertex -1.73974 -14 28.0678
      vertex -2.10344 -14 28.4718
    endloop
  endfacet
  facet normal 0 -1 0
    outer loop
      vertex -2.10344 -14 16.5282
      vertex -2.10344 -14 28.4718
      vertex -2.37522 -14 28.9425
    endloop
  endfacet
  facet normal 0 -1 0
    outer loop
      vertex -2.37522 -14 16.0575
      vertex -2.37522 -14 28.9425
      vertex -2.54318 -14 29.4594
    endloop
  endfacet
  facet normal 0 -1 -0
    outer loop
      vertex -2.6 -14 30
      vertex -10 -14 0
      vertex -2.54318 -14 29.4594
    endloop
  endfacet
  facet normal 0 -1 0
    outer loop
      vertex -0.803444 -14 27.5273
      vertex -0.803444 -14 17.4727
      vertex -0.271773 -14 17.5858
    endloop
  endfacet
  facet normal 0 -1 0
    outer loop
      vertex -1.3 -14 27.7483
      vertex -1.3 -14 17.2517
      vertex -0.803444 -14 17.4727
    endloop
  endfacet
  facet normal 0 -1 0
    outer loop
      vertex -1.73974 -14 28.0678
      vertex -1.73974 -14 16.9322
      vertex -1.3 -14 17.2517
    endloop
  endfacet
  facet normal 0 -1 0
    outer loop
      vertex -2.10344 -14 28.4718
      vertex -2.10344 -14 16.5282
      vertex -1.73974 -14 16.9322
    endloop
  endfacet
  facet normal 0 -1 0
    outer loop
      vertex -2.37522 -14 28.9425
      vertex -2.37522 -14 16.0575
      vertex -2.10344 -14 16.5282
    endloop
  endfacet
  facet normal 0 -1 0
    outer loop
      vertex -2.54318 -14 29.4594
      vertex -2.54318 -14 15.5406
      vertex -2.37522 -14 16.0575
    endloop
  endfacet
  facet normal 0 -1 -0
    outer loop
      vertex -2.54318 -14 29.4594
      vertex -10 -14 0
      vertex -2.54318 -14 15.5406
    endloop
  endfacet
  facet normal 0 -1 0
    outer loop
      vertex -2.54318 -14 15.5406
      vertex -10 -14 0
      vertex -2.6 -14 15
    endloop
  endfacet
  facet normal 0 -1 -0
    outer loop
      vertex -0.271773 -14 12.4142
      vertex -10 -14 0
      vertex 0.271773 -14 12.4142
    endloop
  endfacet
  facet normal 0 -1 -0
    outer loop
      vertex -0.803444 -14 12.5273
      vertex -10 -14 0
      vertex -0.271773 -14 12.4142
    endloop
  endfacet
  facet normal 0 -1 -0
    outer loop
      vertex -1.3 -14 12.7483
      vertex -10 -14 0
      vertex -0.803444 -14 12.5273
    endloop
  endfacet
  facet normal 0 -1 -0
    outer loop
      vertex -1.73974 -14 13.0678
      vertex -10 -14 0
      vertex -1.3 -14 12.7483
    endloop
  endfacet
  facet normal 0 -1 -0
    outer loop
      vertex -2.10344 -14 13.4718
      vertex -10 -14 0
      vertex -1.73974 -14 13.0678
    endloop
  endfacet
  facet normal 0 -1 -0
    outer loop
      vertex -2.37522 -14 13.9425
      vertex -10 -14 0
      vertex -2.10344 -14 13.4718
    endloop
  endfacet
  facet normal 0 -1 -0
    outer loop
      vertex -2.54318 -14 14.4594
      vertex -10 -14 0
      vertex -2.37522 -14 13.9425
    endloop
  endfacet
  facet normal 0 -1 -0
    outer loop
      vertex -2.6 -14 15
      vertex -10 -14 0
      vertex -2.54318 -14 14.4594
    endloop
  endfacet
  facet normal 0 -1 0
    outer loop
      vertex 0.271773 -14 47.5858
      vertex 10 -14 60
      vertex -0.271773 -14 47.5858
    endloop
  endfacet
  facet normal 0 -1 0
    outer loop
      vertex 0.803444 -14 47.4727
      vertex 10 -14 60
      vertex 0.271773 -14 47.5858
    endloop
  endfacet
  facet normal 0 -1 0
    outer loop
      vertex 1.3 -14 47.2517
      vertex 10 -14 60
      vertex 0.803444 -14 47.4727
    endloop
  endfacet
  facet normal 0 -1 0
    outer loop
      vertex 1.73974 -14 46.9322
      vertex 10 -14 60
      vertex 1.3 -14 47.2517
    endloop
  endfacet
  facet normal 0 -1 0
    outer loop
      vertex 2.10344 -14 46.5282
      vertex 10 -14 60
      vertex 1.73974 -14 46.9322
    endloop
  endfacet
  facet normal 0 -1 0
    outer loop
      vertex 2.37522 -14 46.0575
      vertex 10 -14 60
      vertex 2.10344 -14 46.5282
    endloop
  endfacet
  facet normal 0 -1 0
    outer loop
      vertex 2.54318 -14 45.5406
      vertex 10 -14 60
      vertex 2.37522 -14 46.0575
    endloop
  endfacet
  facet normal 0 -1 0
    outer loop
      vertex 2.6 -14 45
      vertex 10 -14 60
      vertex 2.54318 -14 45.5406
    endloop
  endfacet
  facet normal 0 -1 0
    outer loop
      vertex 2.54318 -14 44.4594
      vertex 10 -14 60
      vertex 2.6 -14 45
    endloop
  endfacet
  facet normal 0 -1 0
    outer loop
      vertex 2.54318 -14 30.5406
      vertex 2.54318 -14 44.4594
      vertex 2.37522 -14 43.9425
    endloop
  endfacet
  facet normal 0 -1 0
    outer loop
      vertex 0.271773 -14 32.5858
      vertex 0.271773 -14 42.4142
      vertex -0.271773 -14 32.5858
    endloop
  endfacet
  facet normal 0 -1 0
    outer loop
      vertex 0.271773 -14 42.4142
      vertex 0.271773 -14 32.5858
      vertex 0.803444 -14 42.5273
    endloop
  endfacet
  facet normal 0 -1 0
    outer loop
      vertex 0.803444 -14 32.4727
      vertex 0.803444 -14 42.5273
      vertex 0.271773 -14 32.5858
    endloop
  endfacet
  facet normal 0 -1 0
    outer loop
      vertex 0.803444 -14 42.5273
      vertex 0.803444 -14 32.4727
      vertex 1.3 -14 42.7483
    endloop
  endfacet
  facet normal 0 -1 0
    outer loop
      vertex 1.3 -14 32.2517
      vertex 1.3 -14 42.7483
      vertex 0.803444 -14 32.4727
    endloop
  endfacet
  facet normal 0 -1 0
    outer loop
      vertex 1.3 -14 42.7483
      vertex 1.3 -14 32.2517
      vertex 1.73974 -14 43.0678
    endloop
  endfacet
  facet normal 0 -1 0
    outer loop
      vertex 1.73974 -14 31.9322
      vertex 1.73974 -14 43.0678
      vertex 1.3 -14 32.2517
    endloop
  endfacet
  facet normal 0 -1 0
    outer loop
      vertex 1.73974 -14 43.0678
      vertex 1.73974 -14 31.9322
      vertex 2.10344 -14 43.4718
    endloop
  endfacet
  facet normal 0 -1 0
    outer loop
      vertex 2.10344 -14 31.5282
      vertex 2.10344 -14 43.4718
      vertex 1.73974 -14 31.9322
    endloop
  endfacet
  facet normal 0 -1 0
    outer loop
      vertex 2.10344 -14 43.4718
      vertex 2.10344 -14 31.5282
      vertex 2.37522 -14 43.9425
    endloop
  endfacet
  facet normal 0 -1 0
    outer loop
      vertex 2.37522 -14 31.0575
      vertex 2.37522 -14 43.9425
      vertex 2.10344 -14 31.5282
    endloop
  endfacet
  facet normal 0 -1 0
    outer loop
      vertex 2.54318 -14 30.5406
      vertex 2.37522 -14 43.9425
      vertex 2.37522 -14 31.0575
    endloop
  endfacet
  facet normal 0 -1 0
    outer loop
      vertex 2.54318 -14 44.4594
      vertex 2.54318 -14 30.5406
      vertex 10 -14 60
    endloop
  endfacet
  facet normal 0 -1 0
    outer loop
      vertex 2.6 -14 30
      vertex 10 -14 60
      vertex 2.54318 -14 30.5406
    endloop
  endfacet
  facet normal 0 -1 0
    outer loop
      vertex 10 -14 0
      vertex 2.6 -14 30
      vertex 2.54318 -14 29.4594
    endloop
  endfacet
  facet normal 0 -1 0
    outer loop
      vertex 0.271773 -14 17.5858
      vertex 0.271773 -14 27.4142
      vertex -0.271773 -14 17.5858
    endloop
  endfacet
  facet normal 0 -1 0
    outer loop
      vertex 0.271773 -14 27.4142
      vertex 0.271773 -14 17.5858
      vertex 0.803444 -14 27.5273
    endloop
  endfacet
  facet normal 0 -1 0
    outer loop
      vertex 0.803444 -14 17.4727
      vertex 0.803444 -14 27.5273
      vertex 0.271773 -14 17.5858
    endloop
  endfacet
  facet normal 0 -1 0
    outer loop
      vertex 0.803444 -14 27.5273
      vertex 0.803444 -14 17.4727
      vertex 1.3 -14 27.7483
    endloop
  endfacet
  facet normal 0 -1 0
    outer loop
      vertex 1.3 -14 17.2517
      vertex 1.3 -14 27.7483
      vertex 0.803444 -14 17.4727
    endloop
  endfacet
  facet normal 0 -1 0
    outer loop
      vertex 1.3 -14 27.7483
      vertex 1.3 -14 17.2517
      vertex 1.73974 -14 28.0678
    endloop
  endfacet
  facet normal 0 -1 0
    outer loop
      vertex 1.73974 -14 16.9322
      vertex 1.73974 -14 28.0678
      vertex 1.3 -14 17.2517
    endloop
  endfacet
  facet normal 0 -1 0
    outer loop
      vertex 1.73974 -14 28.0678
      vertex 1.73974 -14 16.9322
      vertex 2.10344 -14 28.4718
    endloop
  endfacet
  facet normal 0 -1 0
    outer loop
      vertex 2.10344 -14 16.5282
      vertex 2.10344 -14 28.4718
      vertex 1.73974 -14 16.9322
    endloop
  endfacet
  facet normal 0 -1 0
    outer loop
      vertex 2.10344 -14 28.4718
      vertex 2.10344 -14 16.5282
      vertex 2.37522 -14 28.9425
    endloop
  endfacet
  facet normal 0 -1 0
    outer loop
      vertex 2.37522 -14 16.0575
      vertex 2.37522 -14 28.9425
      vertex 2.10344 -14 16.5282
    endloop
  endfacet
  facet normal 0 -1 0
    outer loop
      vertex 2.37522 -14 28.9425
      vertex 2.37522 -14 16.0575
      vertex 2.54318 -14 29.4594
    endloop
  endfacet
  facet normal 0 -1 0
    outer loop
      vertex 2.54318 -14 15.5406
      vertex 2.54318 -14 29.4594
      vertex 2.37522 -14 16.0575
    endloop
  endfacet
  facet normal 0 -1 0
    outer loop
      vertex 10 -14 0
      vertex 2.54318 -14 29.4594
      vertex 2.54318 -14 15.5406
    endloop
  endfacet
  facet normal 0 -1 0
    outer loop
      vertex 10 -14 0
      vertex 2.54318 -14 15.5406
      vertex 2.6 -14 15
    endloop
  endfacet
  facet normal 0 -1 0
    outer loop
      vertex 10 -14 0
      vertex 2.6 -14 15
      vertex 2.54318 -14 14.4594
    endloop
  endfacet
  facet normal 0 -1 0
    outer loop
      vertex 10 -14 0
      vertex 0.271773 -14 12.4142
      vertex -10 -14 0
    endloop
  endfacet
  facet normal 0 -1 0
    outer loop
      vertex 0.271773 -14 12.4142
      vertex 10 -14 0
      vertex 0.803444 -14 12.5273
    endloop
  endfacet
  facet normal 0 -1 0
    outer loop
      vertex 0.803444 -14 12.5273
      vertex 10 -14 0
      vertex 1.3 -14 12.7483
    endloop
  endfacet
  facet normal 0 -1 0
    outer loop
      vertex 1.3 -14 12.7483
      vertex 10 -14 0
      vertex 1.73974 -14 13.0678
    endloop
  endfacet
  facet normal 0 -1 0
    outer loop
      vertex 2.6 -14 30
      vertex 10 -14 0
      vertex 10 -14 60
    endloop
  endfacet
  facet normal 0 -1 0
    outer loop
      vertex 2.37522 -14 13.9425
      vertex 10 -14 0
      vertex 2.54318 -14 14.4594
    endloop
  endfacet
  facet normal 0 -1 0
    outer loop
      vertex 2.10344 -14 13.4718
      vertex 10 -14 0
      vertex 2.37522 -14 13.9425
    endloop
  endfacet
  facet normal 0 -1 0
    outer loop
      vertex 1.73974 -14 13.0678
      vertex 10 -14 0
      vertex 2.10344 -14 13.4718
    endloop
  endfacet
  facet normal -0.994522 0 -0.10453
    outer loop
      vertex 2.6 -14 15
      vertex 2.54318 -10 15.5406
      vertex 2.6 -10 15
    endloop
  endfacet
  facet normal -0.994522 -0 -0.10453
    outer loop
      vertex 2.54318 -10 15.5406
      vertex 2.6 -14 15
      vertex 2.54318 -14 15.5406
    endloop
  endfacet
  facet normal -0.951052 0 -0.309032
    outer loop
      vertex 2.54318 -14 15.5406
      vertex 2.37522 -10 16.0575
      vertex 2.54318 -10 15.5406
    endloop
  endfacet
  facet normal -0.951052 -0 -0.309032
    outer loop
      vertex 2.37522 -10 16.0575
      vertex 2.54318 -14 15.5406
      vertex 2.37522 -14 16.0575
    endloop
  endfacet
  facet normal 0.20807 0 -0.978114
    outer loop
      vertex -0.803444 -14 17.4727
      vertex -0.271773 -10 17.5858
      vertex -0.271773 -14 17.5858
    endloop
  endfacet
  facet normal 0.20807 0 -0.978114
    outer loop
      vertex -0.271773 -10 17.5858
      vertex -0.803444 -14 17.4727
      vertex -0.803444 -10 17.4727
    endloop
  endfacet
  facet normal -0.587798 0 -0.809008
    outer loop
      vertex 1.3 -14 17.2517
      vertex 1.73974 -10 16.9322
      vertex 1.73974 -14 16.9322
    endloop
  endfacet
  facet normal -0.587798 0 -0.809008
    outer loop
      vertex 1.73974 -10 16.9322
      vertex 1.3 -14 17.2517
      vertex 1.3 -10 17.2517
    endloop
  endfacet
  facet normal 0.743203 0 -0.669066
    outer loop
      vertex -1.73974 -14 16.9322
      vertex -2.10344 -10 16.5282
      vertex -1.73974 -10 16.9322
    endloop
  endfacet
  facet normal 0.743203 0 -0.669066
    outer loop
      vertex -2.10344 -10 16.5282
      vertex -1.73974 -14 16.9322
      vertex -2.10344 -14 16.5282
    endloop
  endfacet
  facet normal 0.587798 0 -0.809008
    outer loop
      vertex -1.73974 -14 16.9322
      vertex -1.3 -10 17.2517
      vertex -1.3 -14 17.2517
    endloop
  endfacet
  facet normal 0.587798 0 -0.809008
    outer loop
      vertex -1.3 -10 17.2517
      vertex -1.73974 -14 16.9322
      vertex -1.73974 -10 16.9322
    endloop
  endfacet
  facet normal -0.866008 0 0.500029
    outer loop
      vertex 2.10344 -14 13.4718
      vertex 2.37522 -10 13.9425
      vertex 2.10344 -10 13.4718
    endloop
  endfacet
  facet normal -0.866008 0 0.500029
    outer loop
      vertex 2.37522 -10 13.9425
      vertex 2.10344 -14 13.4718
      vertex 2.37522 -14 13.9425
    endloop
  endfacet
  facet normal -0.866008 0 -0.500029
    outer loop
      vertex 2.37522 -14 16.0575
      vertex 2.10344 -10 16.5282
      vertex 2.37522 -10 16.0575
    endloop
  endfacet
  facet normal -0.866008 -0 -0.500029
    outer loop
      vertex 2.10344 -10 16.5282
      vertex 2.37522 -14 16.0575
      vertex 2.10344 -14 16.5282
    endloop
  endfacet
  facet normal -0.20807 0 -0.978114
    outer loop
      vertex 0.271773 -14 17.5858
      vertex 0.803444 -10 17.4727
      vertex 0.803444 -14 17.4727
    endloop
  endfacet
  facet normal -0.20807 0 -0.978114
    outer loop
      vertex 0.803444 -10 17.4727
      vertex 0.271773 -14 17.5858
      vertex 0.271773 -10 17.5858
    endloop
  endfacet
  facet normal -0.406612 0 -0.913601
    outer loop
      vertex 0.803444 -14 17.4727
      vertex 1.3 -10 17.2517
      vertex 1.3 -14 17.2517
    endloop
  endfacet
  facet normal -0.406612 0 -0.913601
    outer loop
      vertex 1.3 -10 17.2517
      vertex 0.803444 -14 17.4727
      vertex 0.803444 -10 17.4727
    endloop
  endfacet
  facet normal 0.951052 0 -0.309032
    outer loop
      vertex -2.37522 -14 16.0575
      vertex -2.54318 -10 15.5406
      vertex -2.37522 -10 16.0575
    endloop
  endfacet
  facet normal 0.951052 0 -0.309032
    outer loop
      vertex -2.54318 -10 15.5406
      vertex -2.37522 -14 16.0575
      vertex -2.54318 -14 15.5406
    endloop
  endfacet
  facet normal 0.866008 0 -0.500029
    outer loop
      vertex -2.10344 -14 16.5282
      vertex -2.37522 -10 16.0575
      vertex -2.10344 -10 16.5282
    endloop
  endfacet
  facet normal 0.866008 0 -0.500029
    outer loop
      vertex -2.37522 -10 16.0575
      vertex -2.10344 -14 16.5282
      vertex -2.37522 -14 16.0575
    endloop
  endfacet
  facet normal 0.406612 0 -0.913601
    outer loop
      vertex -1.3 -14 17.2517
      vertex -0.803444 -10 17.4727
      vertex -0.803444 -14 17.4727
    endloop
  endfacet
  facet normal 0.406612 0 -0.913601
    outer loop
      vertex -0.803444 -10 17.4727
      vertex -1.3 -14 17.2517
      vertex -1.3 -10 17.2517
    endloop
  endfacet
  facet normal -0.20807 0 0.978114
    outer loop
      vertex 0.271773 -10 12.4142
      vertex 0.803444 -14 12.5273
      vertex 0.803444 -10 12.5273
    endloop
  endfacet
  facet normal -0.20807 0 0.978114
    outer loop
      vertex 0.803444 -14 12.5273
      vertex 0.271773 -10 12.4142
      vertex 0.271773 -14 12.4142
    endloop
  endfacet
  facet normal -0.587798 0 0.809008
    outer loop
      vertex 1.3 -10 12.7483
      vertex 1.73974 -14 13.0678
      vertex 1.73974 -10 13.0678
    endloop
  endfacet
  facet normal -0.587798 0 0.809008
    outer loop
      vertex 1.73974 -14 13.0678
      vertex 1.3 -10 12.7483
      vertex 1.3 -14 12.7483
    endloop
  endfacet
  facet normal -0.743203 0 -0.669066
    outer loop
      vertex 2.10344 -14 16.5282
      vertex 1.73974 -10 16.9322
      vertex 2.10344 -10 16.5282
    endloop
  endfacet
  facet normal -0.743203 -0 -0.669066
    outer loop
      vertex 1.73974 -10 16.9322
      vertex 2.10344 -14 16.5282
      vertex 1.73974 -14 16.9322
    endloop
  endfacet
  facet normal 0 0 -1
    outer loop
      vertex -0.271773 -14 17.5858
      vertex 0.271773 -10 17.5858
      vertex 0.271773 -14 17.5858
    endloop
  endfacet
  facet normal -0 0 -1
    outer loop
      vertex 0.271773 -10 17.5858
      vertex -0.271773 -14 17.5858
      vertex -0.271773 -10 17.5858
    endloop
  endfacet
  facet normal 0.994522 0 -0.10453
    outer loop
      vertex -2.54318 -14 15.5406
      vertex -2.6 -10 15
      vertex -2.54318 -10 15.5406
    endloop
  endfacet
  facet normal 0.994522 0 -0.10453
    outer loop
      vertex -2.6 -10 15
      vertex -2.54318 -14 15.5406
      vertex -2.6 -14 15
    endloop
  endfacet
  facet normal 0.994522 -0 0.10453
    outer loop
      vertex -2.6 -14 15
      vertex -2.54318 -10 14.4594
      vertex -2.6 -10 15
    endloop
  endfacet
  facet normal 0.994522 0 0.10453
    outer loop
      vertex -2.54318 -10 14.4594
      vertex -2.6 -14 15
      vertex -2.54318 -14 14.4594
    endloop
  endfacet
  facet normal 0.587798 0 0.809008
    outer loop
      vertex -1.73974 -10 13.0678
      vertex -1.3 -14 12.7483
      vertex -1.3 -10 12.7483
    endloop
  endfacet
  facet normal 0.587798 0 0.809008
    outer loop
      vertex -1.3 -14 12.7483
      vertex -1.73974 -10 13.0678
      vertex -1.73974 -14 13.0678
    endloop
  endfacet
  facet normal 0.743203 -0 0.669066
    outer loop
      vertex -2.10344 -14 13.4718
      vertex -1.73974 -10 13.0678
      vertex -2.10344 -10 13.4718
    endloop
  endfacet
  facet normal 0.743203 0 0.669066
    outer loop
      vertex -1.73974 -10 13.0678
      vertex -2.10344 -14 13.4718
      vertex -1.73974 -14 13.0678
    endloop
  endfacet
  facet normal 0.866008 -0 0.500029
    outer loop
      vertex -2.37522 -14 13.9425
      vertex -2.10344 -10 13.4718
      vertex -2.37522 -10 13.9425
    endloop
  endfacet
  facet normal 0.866008 0 0.500029
    outer loop
      vertex -2.10344 -10 13.4718
      vertex -2.37522 -14 13.9425
      vertex -2.10344 -14 13.4718
    endloop
  endfacet
  facet normal 0.951052 -0 0.309032
    outer loop
      vertex -2.54318 -14 14.4594
      vertex -2.37522 -10 13.9425
      vertex -2.54318 -10 14.4594
    endloop
  endfacet
  facet normal 0.951052 0 0.309032
    outer loop
      vertex -2.37522 -10 13.9425
      vertex -2.54318 -14 14.4594
      vertex -2.37522 -14 13.9425
    endloop
  endfacet
  facet normal -0.406612 0 0.913601
    outer loop
      vertex 0.803444 -10 12.5273
      vertex 1.3 -14 12.7483
      vertex 1.3 -10 12.7483
    endloop
  endfacet
  facet normal -0.406612 0 0.913601
    outer loop
      vertex 1.3 -14 12.7483
      vertex 0.803444 -10 12.5273
      vertex 0.803444 -14 12.5273
    endloop
  endfacet
  facet normal -0.743203 0 0.669066
    outer loop
      vertex 1.73974 -14 13.0678
      vertex 2.10344 -10 13.4718
      vertex 1.73974 -10 13.0678
    endloop
  endfacet
  facet normal -0.743203 0 0.669066
    outer loop
      vertex 2.10344 -10 13.4718
      vertex 1.73974 -14 13.0678
      vertex 2.10344 -14 13.4718
    endloop
  endfacet
  facet normal -0.951052 0 0.309032
    outer loop
      vertex 2.37522 -14 13.9425
      vertex 2.54318 -10 14.4594
      vertex 2.37522 -10 13.9425
    endloop
  endfacet
  facet normal -0.951052 0 0.309032
    outer loop
      vertex 2.54318 -10 14.4594
      vertex 2.37522 -14 13.9425
      vertex 2.54318 -14 14.4594
    endloop
  endfacet
  facet normal -0.994522 0 0.10453
    outer loop
      vertex 2.54318 -14 14.4594
      vertex 2.6 -10 15
      vertex 2.54318 -10 14.4594
    endloop
  endfacet
  facet normal -0.994522 0 0.10453
    outer loop
      vertex 2.6 -10 15
      vertex 2.54318 -14 14.4594
      vertex 2.6 -14 15
    endloop
  endfacet
  facet normal 0.406612 0 0.913601
    outer loop
      vertex -1.3 -10 12.7483
      vertex -0.803444 -14 12.5273
      vertex -0.803444 -10 12.5273
    endloop
  endfacet
  facet normal 0.406612 0 0.913601
    outer loop
      vertex -0.803444 -14 12.5273
      vertex -1.3 -10 12.7483
      vertex -1.3 -14 12.7483
    endloop
  endfacet
  facet normal 0.20807 0 0.978114
    outer loop
      vertex -0.803444 -10 12.5273
      vertex -0.271773 -14 12.4142
      vertex -0.271773 -10 12.4142
    endloop
  endfacet
  facet normal 0.20807 0 0.978114
    outer loop
      vertex -0.271773 -14 12.4142
      vertex -0.803444 -10 12.5273
      vertex -0.803444 -14 12.5273
    endloop
  endfacet
  facet normal -0 0 1
    outer loop
      vertex -0.271773 -10 12.4142
      vertex 0.271773 -14 12.4142
      vertex 0.271773 -10 12.4142
    endloop
  endfacet
  facet normal 0 0 1
    outer loop
      vertex 0.271773 -14 12.4142
      vertex -0.271773 -10 12.4142
      vertex -0.271773 -14 12.4142
    endloop
  endfacet
  facet normal -0.994522 0 -0.10453
    outer loop
      vertex 2.6 -14 45
      vertex 2.54318 -10 45.5406
      vertex 2.6 -10 45
    endloop
  endfacet
  facet normal -0.994522 -0 -0.10453
    outer loop
      vertex 2.54318 -10 45.5406
      vertex 2.6 -14 45
      vertex 2.54318 -14 45.5406
    endloop
  endfacet
  facet normal -0.866008 0 -0.500029
    outer loop
      vertex 2.37522 -14 46.0575
      vertex 2.10344 -10 46.5282
      vertex 2.37522 -10 46.0575
    endloop
  endfacet
  facet normal -0.866008 -0 -0.500029
    outer loop
      vertex 2.10344 -10 46.5282
      vertex 2.37522 -14 46.0575
      vertex 2.10344 -14 46.5282
    endloop
  endfacet
  facet normal -0.994522 0 0.10453
    outer loop
      vertex 2.54318 -14 44.4594
      vertex 2.6 -10 45
      vertex 2.54318 -10 44.4594
    endloop
  endfacet
  facet normal -0.994522 0 0.10453
    outer loop
      vertex 2.6 -10 45
      vertex 2.54318 -14 44.4594
      vertex 2.6 -14 45
    endloop
  endfacet
  facet normal -0.20807 0 -0.978114
    outer loop
      vertex 0.271773 -14 47.5858
      vertex 0.803444 -10 47.4727
      vertex 0.803444 -14 47.4727
    endloop
  endfacet
  facet normal -0.20807 0 -0.978114
    outer loop
      vertex 0.803444 -10 47.4727
      vertex 0.271773 -14 47.5858
      vertex 0.271773 -10 47.5858
    endloop
  endfacet
  facet normal 0.951052 0 -0.309032
    outer loop
      vertex -2.37522 -14 46.0575
      vertex -2.54318 -10 45.5406
      vertex -2.37522 -10 46.0575
    endloop
  endfacet
  facet normal 0.951052 0 -0.309032
    outer loop
      vertex -2.54318 -10 45.5406
      vertex -2.37522 -14 46.0575
      vertex -2.54318 -14 45.5406
    endloop
  endfacet
  facet normal 0.743203 0 -0.669066
    outer loop
      vertex -1.73974 -14 46.9322
      vertex -2.10344 -10 46.5282
      vertex -1.73974 -10 46.9322
    endloop
  endfacet
  facet normal 0.743203 0 -0.669066
    outer loop
      vertex -2.10344 -10 46.5282
      vertex -1.73974 -14 46.9322
      vertex -2.10344 -14 46.5282
    endloop
  endfacet
  facet normal -0.406612 0 0.913601
    outer loop
      vertex 0.803444 -10 42.5273
      vertex 1.3 -14 42.7483
      vertex 1.3 -10 42.7483
    endloop
  endfacet
  facet normal -0.406612 0 0.913601
    outer loop
      vertex 1.3 -14 42.7483
      vertex 0.803444 -10 42.5273
      vertex 0.803444 -14 42.5273
    endloop
  endfacet
  facet normal -0.587798 0 -0.809008
    outer loop
      vertex 1.3 -14 47.2517
      vertex 1.73974 -10 46.9322
      vertex 1.73974 -14 46.9322
    endloop
  endfacet
  facet normal -0.587798 0 -0.809008
    outer loop
      vertex 1.73974 -10 46.9322
      vertex 1.3 -14 47.2517
      vertex 1.3 -10 47.2517
    endloop
  endfacet
  facet normal -0.743203 0 -0.669066
    outer loop
      vertex 2.10344 -14 46.5282
      vertex 1.73974 -10 46.9322
      vertex 2.10344 -10 46.5282
    endloop
  endfacet
  facet normal -0.743203 -0 -0.669066
    outer loop
      vertex 1.73974 -10 46.9322
      vertex 2.10344 -14 46.5282
      vertex 1.73974 -14 46.9322
    endloop
  endfacet
  facet normal 0.20807 0 -0.978114
    outer loop
      vertex -0.803444 -14 47.4727
      vertex -0.271773 -10 47.5858
      vertex -0.271773 -14 47.5858
    endloop
  endfacet
  facet normal 0.20807 0 -0.978114
    outer loop
      vertex -0.271773 -10 47.5858
      vertex -0.803444 -14 47.4727
      vertex -0.803444 -10 47.4727
    endloop
  endfacet
  facet normal 0.994522 -0 0.10453
    outer loop
      vertex -2.6 -14 45
      vertex -2.54318 -10 44.4594
      vertex -2.6 -10 45
    endloop
  endfacet
  facet normal 0.994522 0 0.10453
    outer loop
      vertex -2.54318 -10 44.4594
      vertex -2.6 -14 45
      vertex -2.54318 -14 44.4594
    endloop
  endfacet
  facet normal 0.866008 0 -0.500029
    outer loop
      vertex -2.10344 -14 46.5282
      vertex -2.37522 -10 46.0575
      vertex -2.10344 -10 46.5282
    endloop
  endfacet
  facet normal 0.866008 0 -0.500029
    outer loop
      vertex -2.37522 -10 46.0575
      vertex -2.10344 -14 46.5282
      vertex -2.37522 -14 46.0575
    endloop
  endfacet
  facet normal 0.587798 0 0.809008
    outer loop
      vertex -1.73974 -10 43.0678
      vertex -1.3 -14 42.7483
      vertex -1.3 -10 42.7483
    endloop
  endfacet
  facet normal 0.587798 0 0.809008
    outer loop
      vertex -1.3 -14 42.7483
      vertex -1.73974 -10 43.0678
      vertex -1.73974 -14 43.0678
    endloop
  endfacet
  facet normal 0.743203 -0 0.669066
    outer loop
      vertex -2.10344 -14 43.4718
      vertex -1.73974 -10 43.0678
      vertex -2.10344 -10 43.4718
    endloop
  endfacet
  facet normal 0.743203 0 0.669066
    outer loop
      vertex -1.73974 -10 43.0678
      vertex -2.10344 -14 43.4718
      vertex -1.73974 -14 43.0678
    endloop
  endfacet
  facet normal -0.743203 0 0.669066
    outer loop
      vertex 1.73974 -14 43.0678
      vertex 2.10344 -10 43.4718
      vertex 1.73974 -10 43.0678
    endloop
  endfacet
  facet normal -0.743203 0 0.669066
    outer loop
      vertex 2.10344 -10 43.4718
      vertex 1.73974 -14 43.0678
      vertex 2.10344 -14 43.4718
    endloop
  endfacet
  facet normal -0.20807 0 0.978114
    outer loop
      vertex 0.271773 -10 42.4142
      vertex 0.803444 -14 42.5273
      vertex 0.803444 -10 42.5273
    endloop
  endfacet
  facet normal -0.20807 0 0.978114
    outer loop
      vertex 0.803444 -14 42.5273
      vertex 0.271773 -10 42.4142
      vertex 0.271773 -14 42.4142
    endloop
  endfacet
  facet normal -0.951052 0 -0.309032
    outer loop
      vertex 2.54318 -14 45.5406
      vertex 2.37522 -10 46.0575
      vertex 2.54318 -10 45.5406
    endloop
  endfacet
  facet normal -0.951052 -0 -0.309032
    outer loop
      vertex 2.37522 -10 46.0575
      vertex 2.54318 -14 45.5406
      vertex 2.37522 -14 46.0575
    endloop
  endfacet
  facet normal 0 0 -1
    outer loop
      vertex -0.271773 -14 47.5858
      vertex 0.271773 -10 47.5858
      vertex 0.271773 -14 47.5858
    endloop
  endfacet
  facet normal -0 0 -1
    outer loop
      vertex 0.271773 -10 47.5858
      vertex -0.271773 -14 47.5858
      vertex -0.271773 -10 47.5858
    endloop
  endfacet
  facet normal -0.406612 0 -0.913601
    outer loop
      vertex 0.803444 -14 47.4727
      vertex 1.3 -10 47.2517
      vertex 1.3 -14 47.2517
    endloop
  endfacet
  facet normal -0.406612 0 -0.913601
    outer loop
      vertex 1.3 -10 47.2517
      vertex 0.803444 -14 47.4727
      vertex 0.803444 -10 47.4727
    endloop
  endfacet
  facet normal 0.994522 0 -0.10453
    outer loop
      vertex -2.54318 -14 45.5406
      vertex -2.6 -10 45
      vertex -2.54318 -10 45.5406
    endloop
  endfacet
  facet normal 0.994522 0 -0.10453
    outer loop
      vertex -2.6 -10 45
      vertex -2.54318 -14 45.5406
      vertex -2.6 -14 45
    endloop
  endfacet
  facet normal 0.406612 0 -0.913601
    outer loop
      vertex -1.3 -14 47.2517
      vertex -0.803444 -10 47.4727
      vertex -0.803444 -14 47.4727
    endloop
  endfacet
  facet normal 0.406612 0 -0.913601
    outer loop
      vertex -0.803444 -10 47.4727
      vertex -1.3 -14 47.2517
      vertex -1.3 -10 47.2517
    endloop
  endfacet
  facet normal 0.587798 0 -0.809008
    outer loop
      vertex -1.73974 -14 46.9322
      vertex -1.3 -10 47.2517
      vertex -1.3 -14 47.2517
    endloop
  endfacet
  facet normal 0.587798 0 -0.809008
    outer loop
      vertex -1.3 -10 47.2517
      vertex -1.73974 -14 46.9322
      vertex -1.73974 -10 46.9322
    endloop
  endfacet
  facet normal 0.951052 -0 0.309032
    outer loop
      vertex -2.54318 -14 44.4594
      vertex -2.37522 -10 43.9425
      vertex -2.54318 -10 44.4594
    endloop
  endfacet
  facet normal 0.951052 0 0.309032
    outer loop
      vertex -2.37522 -10 43.9425
      vertex -2.54318 -14 44.4594
      vertex -2.37522 -14 43.9425
    endloop
  endfacet
  facet normal -0.951052 0 0.309032
    outer loop
      vertex 2.37522 -14 43.9425
      vertex 2.54318 -10 44.4594
      vertex 2.37522 -10 43.9425
    endloop
  endfacet
  facet normal -0.951052 0 0.309032
    outer loop
      vertex 2.54318 -10 44.4594
      vertex 2.37522 -14 43.9425
      vertex 2.54318 -14 44.4594
    endloop
  endfacet
  facet normal -0.866008 0 0.500029
    outer loop
      vertex 2.10344 -14 43.4718
      vertex 2.37522 -10 43.9425
      vertex 2.10344 -10 43.4718
    endloop
  endfacet
  facet normal -0.866008 0 0.500029
    outer loop
      vertex 2.37522 -10 43.9425
      vertex 2.10344 -14 43.4718
      vertex 2.37522 -14 43.9425
    endloop
  endfacet
  facet normal -0.587798 0 0.809008
    outer loop
      vertex 1.3 -10 42.7483
      vertex 1.73974 -14 43.0678
      vertex 1.73974 -10 43.0678
    endloop
  endfacet
  facet normal -0.587798 0 0.809008
    outer loop
      vertex 1.73974 -14 43.0678
      vertex 1.3 -10 42.7483
      vertex 1.3 -14 42.7483
    endloop
  endfacet
  facet normal -0 0 1
    outer loop
      vertex -0.271773 -10 42.4142
      vertex 0.271773 -14 42.4142
      vertex 0.271773 -10 42.4142
    endloop
  endfacet
  facet normal 0 0 1
    outer loop
      vertex 0.271773 -14 42.4142
      vertex -0.271773 -10 42.4142
      vertex -0.271773 -14 42.4142
    endloop
  endfacet
  facet normal 0.866008 -0 0.500029
    outer loop
      vertex -2.37522 -14 43.9425
      vertex -2.10344 -10 43.4718
      vertex -2.37522 -10 43.9425
    endloop
  endfacet
  facet normal 0.866008 0 0.500029
    outer loop
      vertex -2.10344 -10 43.4718
      vertex -2.37522 -14 43.9425
      vertex -2.10344 -14 43.4718
    endloop
  endfacet
  facet normal 0.406612 0 0.913601
    outer loop
      vertex -1.3 -10 42.7483
      vertex -0.803444 -14 42.5273
      vertex -0.803444 -10 42.5273
    endloop
  endfacet
  facet normal 0.406612 0 0.913601
    outer loop
      vertex -0.803444 -14 42.5273
      vertex -1.3 -10 42.7483
      vertex -1.3 -14 42.7483
    endloop
  endfacet
  facet normal 0.20807 0 0.978114
    outer loop
      vertex -0.803444 -10 42.5273
      vertex -0.271773 -14 42.4142
      vertex -0.271773 -10 42.4142
    endloop
  endfacet
  facet normal 0.20807 0 0.978114
    outer loop
      vertex -0.271773 -14 42.4142
      vertex -0.803444 -10 42.5273
      vertex -0.803444 -14 42.5273
    endloop
  endfacet
  facet normal -0.994522 0 -0.10453
    outer loop
      vertex 2.6 -14 30
      vertex 2.54318 -10 30.5406
      vertex 2.6 -10 30
    endloop
  endfacet
  facet normal -0.994522 -0 -0.10453
    outer loop
      vertex 2.54318 -10 30.5406
      vertex 2.6 -14 30
      vertex 2.54318 -14 30.5406
    endloop
  endfacet
  facet normal -0.866008 0 -0.500029
    outer loop
      vertex 2.37522 -14 31.0575
      vertex 2.10344 -10 31.5282
      vertex 2.37522 -10 31.0575
    endloop
  endfacet
  facet normal -0.866008 -0 -0.500029
    outer loop
      vertex 2.10344 -10 31.5282
      vertex 2.37522 -14 31.0575
      vertex 2.10344 -14 31.5282
    endloop
  endfacet
  facet normal -0.994522 0 0.10453
    outer loop
      vertex 2.54318 -14 29.4594
      vertex 2.6 -10 30
      vertex 2.54318 -10 29.4594
    endloop
  endfacet
  facet normal -0.994522 0 0.10453
    outer loop
      vertex 2.6 -10 30
      vertex 2.54318 -14 29.4594
      vertex 2.6 -14 30
    endloop
  endfacet
  facet normal 0.951052 0 -0.309032
    outer loop
      vertex -2.37522 -14 31.0575
      vertex -2.54318 -10 30.5406
      vertex -2.37522 -10 31.0575
    endloop
  endfacet
  facet normal 0.951052 0 -0.309032
    outer loop
      vertex -2.54318 -10 30.5406
      vertex -2.37522 -14 31.0575
      vertex -2.54318 -14 30.5406
    endloop
  endfacet
  facet normal 0.743203 0 -0.669066
    outer loop
      vertex -1.73974 -14 31.9322
      vertex -2.10344 -10 31.5282
      vertex -1.73974 -10 31.9322
    endloop
  endfacet
  facet normal 0.743203 0 -0.669066
    outer loop
      vertex -2.10344 -10 31.5282
      vertex -1.73974 -14 31.9322
      vertex -2.10344 -14 31.5282
    endloop
  endfacet
  facet normal -0.406612 0 0.913601
    outer loop
      vertex 0.803444 -10 27.5273
      vertex 1.3 -14 27.7483
      vertex 1.3 -10 27.7483
    endloop
  endfacet
  facet normal -0.406612 0 0.913601
    outer loop
      vertex 1.3 -14 27.7483
      vertex 0.803444 -10 27.5273
      vertex 0.803444 -14 27.5273
    endloop
  endfacet
  facet normal -0.587798 0 -0.809008
    outer loop
      vertex 1.3 -14 32.2517
      vertex 1.73974 -10 31.9322
      vertex 1.73974 -14 31.9322
    endloop
  endfacet
  facet normal -0.587798 0 -0.809008
    outer loop
      vertex 1.73974 -10 31.9322
      vertex 1.3 -14 32.2517
      vertex 1.3 -10 32.2517
    endloop
  endfacet
  facet normal -0.743203 0 -0.669066
    outer loop
      vertex 2.10344 -14 31.5282
      vertex 1.73974 -10 31.9322
      vertex 2.10344 -10 31.5282
    endloop
  endfacet
  facet normal -0.743203 -0 -0.669066
    outer loop
      vertex 1.73974 -10 31.9322
      vertex 2.10344 -14 31.5282
      vertex 1.73974 -14 31.9322
    endloop
  endfacet
  facet normal 0.20807 0 -0.978114
    outer loop
      vertex -0.803444 -14 32.4727
      vertex -0.271773 -10 32.5858
      vertex -0.271773 -14 32.5858
    endloop
  endfacet
  facet normal 0.20807 0 -0.978114
    outer loop
      vertex -0.271773 -10 32.5858
      vertex -0.803444 -14 32.4727
      vertex -0.803444 -10 32.4727
    endloop
  endfacet
  facet normal 0.994522 -0 0.10453
    outer loop
      vertex -2.6 -14 30
      vertex -2.54318 -10 29.4594
      vertex -2.6 -10 30
    endloop
  endfacet
  facet normal 0.994522 0 0.10453
    outer loop
      vertex -2.54318 -10 29.4594
      vertex -2.6 -14 30
      vertex -2.54318 -14 29.4594
    endloop
  endfacet
  facet normal 0.866008 0 -0.500029
    outer loop
      vertex -2.10344 -14 31.5282
      vertex -2.37522 -10 31.0575
      vertex -2.10344 -10 31.5282
    endloop
  endfacet
  facet normal 0.866008 0 -0.500029
    outer loop
      vertex -2.37522 -10 31.0575
      vertex -2.10344 -14 31.5282
      vertex -2.37522 -14 31.0575
    endloop
  endfacet
  facet normal -0 0 1
    outer loop
      vertex -0.271773 -10 27.4142
      vertex 0.271773 -14 27.4142
      vertex 0.271773 -10 27.4142
    endloop
  endfacet
  facet normal 0 0 1
    outer loop
      vertex 0.271773 -14 27.4142
      vertex -0.271773 -10 27.4142
      vertex -0.271773 -14 27.4142
    endloop
  endfacet
  facet normal -0.743203 0 0.669066
    outer loop
      vertex 1.73974 -14 28.0678
      vertex 2.10344 -10 28.4718
      vertex 1.73974 -10 28.0678
    endloop
  endfacet
  facet normal -0.743203 0 0.669066
    outer loop
      vertex 2.10344 -10 28.4718
      vertex 1.73974 -14 28.0678
      vertex 2.10344 -14 28.4718
    endloop
  endfacet
  facet normal -0.20807 0 0.978114
    outer loop
      vertex 0.271773 -10 27.4142
      vertex 0.803444 -14 27.5273
      vertex 0.803444 -10 27.5273
    endloop
  endfacet
  facet normal -0.20807 0 0.978114
    outer loop
      vertex 0.803444 -14 27.5273
      vertex 0.271773 -10 27.4142
      vertex 0.271773 -14 27.4142
    endloop
  endfacet
  facet normal -0.951052 0 -0.309032
    outer loop
      vertex 2.54318 -14 30.5406
      vertex 2.37522 -10 31.0575
      vertex 2.54318 -10 30.5406
    endloop
  endfacet
  facet normal -0.951052 -0 -0.309032
    outer loop
      vertex 2.37522 -10 31.0575
      vertex 2.54318 -14 30.5406
      vertex 2.37522 -14 31.0575
    endloop
  endfacet
  facet normal 0 0 -1
    outer loop
      vertex -0.271773 -14 32.5858
      vertex 0.271773 -10 32.5858
      vertex 0.271773 -14 32.5858
    endloop
  endfacet
  facet normal -0 0 -1
    outer loop
      vertex 0.271773 -10 32.5858
      vertex -0.271773 -14 32.5858
      vertex -0.271773 -10 32.5858
    endloop
  endfacet
  facet normal -0.406612 0 -0.913601
    outer loop
      vertex 0.803444 -14 32.4727
      vertex 1.3 -10 32.2517
      vertex 1.3 -14 32.2517
    endloop
  endfacet
  facet normal -0.406612 0 -0.913601
    outer loop
      vertex 1.3 -10 32.2517
      vertex 0.803444 -14 32.4727
      vertex 0.803444 -10 32.4727
    endloop
  endfacet
  facet normal -0.20807 0 -0.978114
    outer loop
      vertex 0.271773 -14 32.5858
      vertex 0.803444 -10 32.4727
      vertex 0.803444 -14 32.4727
    endloop
  endfacet
  facet normal -0.20807 0 -0.978114
    outer loop
      vertex 0.803444 -10 32.4727
      vertex 0.271773 -14 32.5858
      vertex 0.271773 -10 32.5858
    endloop
  endfacet
  facet normal 0.994522 0 -0.10453
    outer loop
      vertex -2.54318 -14 30.5406
      vertex -2.6 -10 30
      vertex -2.54318 -10 30.5406
    endloop
  endfacet
  facet normal 0.994522 0 -0.10453
    outer loop
      vertex -2.6 -10 30
      vertex -2.54318 -14 30.5406
      vertex -2.6 -14 30
    endloop
  endfacet
  facet normal 0.406612 0 -0.913601
    outer loop
      vertex -1.3 -14 32.2517
      vertex -0.803444 -10 32.4727
      vertex -0.803444 -14 32.4727
    endloop
  endfacet
  facet normal 0.406612 0 -0.913601
    outer loop
      vertex -0.803444 -10 32.4727
      vertex -1.3 -14 32.2517
      vertex -1.3 -10 32.2517
    endloop
  endfacet
  facet normal 0.587798 0 -0.809008
    outer loop
      vertex -1.73974 -14 31.9322
      vertex -1.3 -10 32.2517
      vertex -1.3 -14 32.2517
    endloop
  endfacet
  facet normal 0.587798 0 -0.809008
    outer loop
      vertex -1.3 -10 32.2517
      vertex -1.73974 -14 31.9322
      vertex -1.73974 -10 31.9322
    endloop
  endfacet
  facet normal 0.951052 -0 0.309032
    outer loop
      vertex -2.54318 -14 29.4594
      vertex -2.37522 -10 28.9425
      vertex -2.54318 -10 29.4594
    endloop
  endfacet
  facet normal 0.951052 0 0.309032
    outer loop
      vertex -2.37522 -10 28.9425
      vertex -2.54318 -14 29.4594
      vertex -2.37522 -14 28.9425
    endloop
  endfacet
  facet normal 0.743203 -0 0.669066
    outer loop
      vertex -2.10344 -14 28.4718
      vertex -1.73974 -10 28.0678
      vertex -2.10344 -10 28.4718
    endloop
  endfacet
  facet normal 0.743203 0 0.669066
    outer loop
      vertex -1.73974 -10 28.0678
      vertex -2.10344 -14 28.4718
      vertex -1.73974 -14 28.0678
    endloop
  endfacet
  facet normal 0.866008 -0 0.500029
    outer loop
      vertex -2.37522 -14 28.9425
      vertex -2.10344 -10 28.4718
      vertex -2.37522 -10 28.9425
    endloop
  endfacet
  facet normal 0.866008 0 0.500029
    outer loop
      vertex -2.10344 -10 28.4718
      vertex -2.37522 -14 28.9425
      vertex -2.10344 -14 28.4718
    endloop
  endfacet
  facet normal -0.951052 0 0.309032
    outer loop
      vertex 2.37522 -14 28.9425
      vertex 2.54318 -10 29.4594
      vertex 2.37522 -10 28.9425
    endloop
  endfacet
  facet normal -0.951052 0 0.309032
    outer loop
      vertex 2.54318 -10 29.4594
      vertex 2.37522 -14 28.9425
      vertex 2.54318 -14 29.4594
    endloop
  endfacet
  facet normal -0.866008 0 0.500029
    outer loop
      vertex 2.10344 -14 28.4718
      vertex 2.37522 -10 28.9425
      vertex 2.10344 -10 28.4718
    endloop
  endfacet
  facet normal -0.866008 0 0.500029
    outer loop
      vertex 2.37522 -10 28.9425
      vertex 2.10344 -14 28.4718
      vertex 2.37522 -14 28.9425
    endloop
  endfacet
  facet normal -0.587798 0 0.809008
    outer loop
      vertex 1.3 -10 27.7483
      vertex 1.73974 -14 28.0678
      vertex 1.73974 -10 28.0678
    endloop
  endfacet
  facet normal -0.587798 0 0.809008
    outer loop
      vertex 1.73974 -14 28.0678
      vertex 1.3 -10 27.7483
      vertex 1.3 -14 27.7483
    endloop
  endfacet
  facet normal 0.20807 0 0.978114
    outer loop
      vertex -0.803444 -10 27.5273
      vertex -0.271773 -14 27.4142
      vertex -0.271773 -10 27.4142
    endloop
  endfacet
  facet normal 0.20807 0 0.978114
    outer loop
      vertex -0.271773 -14 27.4142
      vertex -0.803444 -10 27.5273
      vertex -0.803444 -14 27.5273
    endloop
  endfacet
  facet normal 0.587798 0 0.809008
    outer loop
      vertex -1.73974 -10 28.0678
      vertex -1.3 -14 27.7483
      vertex -1.3 -10 27.7483
    endloop
  endfacet
  facet normal 0.587798 0 0.809008
    outer loop
      vertex -1.3 -14 27.7483
      vertex -1.73974 -10 28.0678
      vertex -1.73974 -14 28.0678
    endloop
  endfacet
  facet normal 0.406612 0 0.913601
    outer loop
      vertex -1.3 -10 27.7483
      vertex -0.803444 -14 27.5273
      vertex -0.803444 -10 27.5273
    endloop
  endfacet
  facet normal 0.406612 0 0.913601
    outer loop
      vertex -0.803444 -14 27.5273
      vertex -1.3 -10 27.7483
      vertex -1.3 -14 27.7483
    endloop
  endfacet
  facet normal -0.994522 0.104532 0
    outer loop
      vertex 5.52653 -1.1747 0
      vertex 5.65 0 2
      vertex 5.65 0 0
    endloop
  endfacet
  facet normal -0.994522 0.104532 0
    outer loop
      vertex 5.65 0 2
      vertex 5.52653 -1.1747 0
      vertex 5.52653 -1.1747 2
    endloop
  endfacet
  facet normal 0.207912 0.978148 -0
    outer loop
      vertex -0.590586 -5.61905 0
      vertex -1.74595 -5.37347 2
      vertex -0.590586 -5.61905 2
    endloop
  endfacet
  facet normal 0.207912 0.978148 0
    outer loop
      vertex -1.74595 -5.37347 2
      vertex -0.590586 -5.61905 0
      vertex -1.74595 -5.37347 0
    endloop
  endfacet
  facet normal -0.743143 0.669132 0
    outer loop
      vertex 3.78059 -4.19877 0
      vertex 4.57095 -3.32099 2
      vertex 4.57095 -3.32099 0
    endloop
  endfacet
  facet normal -0.743143 0.669132 0
    outer loop
      vertex 4.57095 -3.32099 2
      vertex 3.78059 -4.19877 0
      vertex 3.78059 -4.19877 2
    endloop
  endfacet
  facet normal -0.951057 0.309016 0
    outer loop
      vertex 5.16153 -2.29806 0
      vertex 5.52653 -1.1747 2
      vertex 5.52653 -1.1747 0
    endloop
  endfacet
  facet normal -0.951057 0.309016 0
    outer loop
      vertex 5.52653 -1.1747 2
      vertex 5.16153 -2.29806 0
      vertex 5.16153 -2.29806 2
    endloop
  endfacet
  facet normal -0.866029 0.499994 0
    outer loop
      vertex 4.57095 -3.32099 0
      vertex 5.16153 -2.29806 2
      vertex 5.16153 -2.29806 0
    endloop
  endfacet
  facet normal -0.866029 0.499994 0
    outer loop
      vertex 5.16153 -2.29806 2
      vertex 4.57095 -3.32099 0
      vertex 4.57095 -3.32099 2
    endloop
  endfacet
  facet normal 0.866029 0.499994 0
    outer loop
      vertex -4.57095 -3.32099 2
      vertex -5.16153 -2.29806 0
      vertex -5.16153 -2.29806 2
    endloop
  endfacet
  facet normal 0.866029 0.499994 0
    outer loop
      vertex -5.16153 -2.29806 0
      vertex -4.57095 -3.32099 2
      vertex -4.57095 -3.32099 0
    endloop
  endfacet
  facet normal 0.994522 0.104532 0
    outer loop
      vertex -5.52653 -1.1747 2
      vertex -5.65 0 0
      vertex -5.65 0 2
    endloop
  endfacet
  facet normal 0.994522 0.104532 0
    outer loop
      vertex -5.65 0 0
      vertex -5.52653 -1.1747 2
      vertex -5.52653 -1.1747 0
    endloop
  endfacet
  facet normal 0.951057 0.309016 0
    outer loop
      vertex -5.16153 -2.29806 2
      vertex -5.52653 -1.1747 0
      vertex -5.52653 -1.1747 2
    endloop
  endfacet
  facet normal 0.951057 0.309016 0
    outer loop
      vertex -5.52653 -1.1747 0
      vertex -5.16153 -2.29806 2
      vertex -5.16153 -2.29806 0
    endloop
  endfacet
  facet normal -0.207912 0.978148 0
    outer loop
      vertex 1.74595 -5.37347 0
      vertex 0.590586 -5.61905 2
      vertex 1.74595 -5.37347 2
    endloop
  endfacet
  facet normal -0.207912 0.978148 0
    outer loop
      vertex 0.590586 -5.61905 2
      vertex 1.74595 -5.37347 0
      vertex 0.590586 -5.61905 0
    endloop
  endfacet
  facet normal -0.587781 0.80902 0
    outer loop
      vertex 3.78059 -4.19877 0
      vertex 2.825 -4.89304 2
      vertex 3.78059 -4.19877 2
    endloop
  endfacet
  facet normal -0.587781 0.80902 0
    outer loop
      vertex 2.825 -4.89304 2
      vertex 3.78059 -4.19877 0
      vertex 2.825 -4.89304 0
    endloop
  endfacet
  facet normal 0 1 -0
    outer loop
      vertex 0.590586 -5.61905 0
      vertex -0.590586 -5.61905 2
      vertex 0.590586 -5.61905 2
    endloop
  endfacet
  facet normal 0 1 0
    outer loop
      vertex -0.590586 -5.61905 2
      vertex 0.590586 -5.61905 0
      vertex -0.590586 -5.61905 0
    endloop
  endfacet
  facet normal 0.587781 0.80902 -0
    outer loop
      vertex -2.825 -4.89304 0
      vertex -3.78059 -4.19877 2
      vertex -2.825 -4.89304 2
    endloop
  endfacet
  facet normal 0.587781 0.80902 0
    outer loop
      vertex -3.78059 -4.19877 2
      vertex -2.825 -4.89304 0
      vertex -3.78059 -4.19877 0
    endloop
  endfacet
  facet normal 0.406741 0.913544 -0
    outer loop
      vertex -1.74595 -5.37347 0
      vertex -2.825 -4.89304 2
      vertex -1.74595 -5.37347 2
    endloop
  endfacet
  facet normal 0.406741 0.913544 0
    outer loop
      vertex -2.825 -4.89304 2
      vertex -1.74595 -5.37347 0
      vertex -2.825 -4.89304 0
    endloop
  endfacet
  facet normal 0.743143 0.669132 0
    outer loop
      vertex -3.78059 -4.19877 2
      vertex -4.57095 -3.32099 0
      vertex -4.57095 -3.32099 2
    endloop
  endfacet
  facet normal 0.743143 0.669132 0
    outer loop
      vertex -4.57095 -3.32099 0
      vertex -3.78059 -4.19877 2
      vertex -3.78059 -4.19877 0
    endloop
  endfacet
  facet normal -0.406741 0.913544 0
    outer loop
      vertex 2.825 -4.89304 0
      vertex 1.74595 -5.37347 2
      vertex 2.825 -4.89304 2
    endloop
  endfacet
  facet normal -0.406741 0.913544 0
    outer loop
      vertex 1.74595 -5.37347 2
      vertex 2.825 -4.89304 0
      vertex 1.74595 -5.37347 0
    endloop
  endfacet
  facet normal 1 -0 0
    outer loop
      vertex -5.65 4.52056 2.9085
      vertex -5.65 4.98891 1
      vertex -5.65 4.98891 3.69629
    endloop
  endfacet
  facet normal 1 -0 0
    outer loop
      vertex -5.65 4.10496 2.20946
      vertex -5.65 4.98891 1
      vertex -5.65 4.52056 2.9085
    endloop
  endfacet
  facet normal 1 -0 0
    outer loop
      vertex -5.65 4.04413 2.13299
      vertex -5.65 4.98891 1
      vertex -5.65 4.10496 2.20946
    endloop
  endfacet
  facet normal 1 -0 0
    outer loop
      vertex -5.65 3.93831 2
      vertex -5.65 4.98891 1
      vertex -5.65 4.04413 2.13299
    endloop
  endfacet
  facet normal 1 0 0
    outer loop
      vertex -5.65 3.93831 2
      vertex -5.65 3 1
      vertex -5.65 4.98891 1
    endloop
  endfacet
  facet normal 1 -0 0
    outer loop
      vertex -5.65 0 2
      vertex -5.65 3 1
      vertex -5.65 3.93831 2
    endloop
  endfacet
  facet normal 1 0 0
    outer loop
      vertex -5.65 0 0
      vertex -5.65 3 1
      vertex -5.65 0 2
    endloop
  endfacet
  facet normal 1 0 0
    outer loop
      vertex -5.65 3 1
      vertex -5.65 0 0
      vertex -5.65 3 0
    endloop
  endfacet
  facet normal -1 0 0
    outer loop
      vertex 5.65 3 0
      vertex 5.65 0 0
      vertex 5.65 3 1
    endloop
  endfacet
  facet normal -1 0 0
    outer loop
      vertex 5.65 4.98891 1
      vertex 5.65 4.52056 2.9085
      vertex 5.65 4.98891 3.69629
    endloop
  endfacet
  facet normal -1 0 0
    outer loop
      vertex 5.65 4.98891 1
      vertex 5.65 4.10496 2.20946
      vertex 5.65 4.52056 2.9085
    endloop
  endfacet
  facet normal -1 0 0
    outer loop
      vertex 5.65 4.98891 1
      vertex 5.65 4.04413 2.13299
      vertex 5.65 4.10496 2.20946
    endloop
  endfacet
  facet normal -1 0 0
    outer loop
      vertex 5.65 4.98891 1
      vertex 5.65 3.93831 2
      vertex 5.65 4.04413 2.13299
    endloop
  endfacet
  facet normal -1 0 0
    outer loop
      vertex 5.65 3 1
      vertex 5.65 3.93831 2
      vertex 5.65 4.98891 1
    endloop
  endfacet
  facet normal -1 0 0
    outer loop
      vertex 5.65 0 2
      vertex 5.65 3 1
      vertex 5.65 0 0
    endloop
  endfacet
  facet normal -1 0 0
    outer loop
      vertex 5.65 3 1
      vertex 5.65 0 2
      vertex 5.65 3.93831 2
    endloop
  endfacet
  facet normal 0.755162 0.655538 2.77936e-07
    outer loop
      vertex -5.73208 5.08347 4.00868
      vertex -10 10 7
      vertex -6.51808 5.98892 7
    endloop
  endfacet
  facet normal 0.755162 0.655538 0
    outer loop
      vertex -10 10 7
      vertex -5.73208 5.08347 4.00868
      vertex -10 10 1
    endloop
  endfacet
  facet normal 0.755165 0.655534 -1.0675e-05
    outer loop
      vertex -5.65 4.98891 3.69629
      vertex -10 10 1
      vertex -5.73208 5.08347 4.00868
    endloop
  endfacet
  facet normal 0.755163 0.655537 0
    outer loop
      vertex -10 10 1
      vertex -5.65 4.98891 3.69629
      vertex -5.65 4.98891 1
    endloop
  endfacet
  facet normal -0.755162 0.655538 0
    outer loop
      vertex 5.73208 5.08347 4.00868
      vertex 10 10 7
      vertex 10 10 1
    endloop
  endfacet
  facet normal -0.755162 0.655538 2.77936e-07
    outer loop
      vertex 10 10 7
      vertex 5.73208 5.08347 4.00868
      vertex 6.51808 5.98892 7
    endloop
  endfacet
  facet normal -0.755163 0.655537 0
    outer loop
      vertex 5.65 4.98891 3.69629
      vertex 10 10 1
      vertex 5.65 4.98891 1
    endloop
  endfacet
  facet normal -0.755165 0.655534 -1.0675e-05
    outer loop
      vertex 10 10 1
      vertex 5.65 4.98891 3.69629
      vertex 5.73208 5.08347 4.00868
    endloop
  endfacet
  facet normal 0 0 1
    outer loop
      vertex -8.70551 1.85041 7
      vertex -10 10 7
      vertex -8.9 0 7
    endloop
  endfacet
  facet normal 0 0 1
    outer loop
      vertex -8.13055 3.61996 7
      vertex -10 10 7
      vertex -8.70551 1.85041 7
    endloop
  endfacet
  facet normal 0 0 1
    outer loop
      vertex -7.20025 5.23129 7
      vertex -10 10 7
      vertex -8.13055 3.61996 7
    endloop
  endfacet
  facet normal 0 0 1
    outer loop
      vertex -10 10 7
      vertex -7.20025 5.23129 7
      vertex -6.51808 5.98892 7
    endloop
  endfacet
  facet normal 0 0 1
    outer loop
      vertex 10 10 7
      vertex 8.9 0 7
      vertex 10 -10 7
    endloop
  endfacet
  facet normal 0 0 1
    outer loop
      vertex 10 10 7
      vertex 8.70551 1.85041 7
      vertex 8.9 0 7
    endloop
  endfacet
  facet normal 0 0 1
    outer loop
      vertex 10 10 7
      vertex 8.13055 3.61996 7
      vertex 8.70551 1.85041 7
    endloop
  endfacet
  facet normal 0 0 1
    outer loop
      vertex 10 10 7
      vertex 7.20025 5.23129 7
      vertex 8.13055 3.61996 7
    endloop
  endfacet
  facet normal 0 -0 1
    outer loop
      vertex 7.20025 5.23129 7
      vertex 10 10 7
      vertex 6.51808 5.98892 7
    endloop
  endfacet
  facet normal -0 0 1
    outer loop
      vertex 8.70551 -1.85041 7
      vertex 10 -10 7
      vertex 8.9 0 7
    endloop
  endfacet
  facet normal -0 0 1
    outer loop
      vertex 8.13055 -3.61996 7
      vertex 10 -10 7
      vertex 8.70551 -1.85041 7
    endloop
  endfacet
  facet normal -0 0 1
    outer loop
      vertex 7.20025 -5.23129 7
      vertex 10 -10 7
      vertex 8.13055 -3.61996 7
    endloop
  endfacet
  facet normal -0 0 1
    outer loop
      vertex 5.95526 -6.61399 7
      vertex 10 -10 7
      vertex 7.20025 -5.23129 7
    endloop
  endfacet
  facet normal -0 0 1
    outer loop
      vertex 4.45 -7.70763 7
      vertex 10 -10 7
      vertex 5.95526 -6.61399 7
    endloop
  endfacet
  facet normal -0 0 1
    outer loop
      vertex 2.75025 -8.4644 7
      vertex 10 -10 7
      vertex 4.45 -7.70763 7
    endloop
  endfacet
  facet normal -0 0 1
    outer loop
      vertex 0.930303 -8.85124 7
      vertex 10 -10 7
      vertex 2.75025 -8.4644 7
    endloop
  endfacet
  facet normal -0 0 1
    outer loop
      vertex -0.930303 -8.85124 7
      vertex 10 -10 7
      vertex 0.930303 -8.85124 7
    endloop
  endfacet
  facet normal 0 0 1
    outer loop
      vertex -10 -10 7
      vertex -8.9 0 7
      vertex -10 10 7
    endloop
  endfacet
  facet normal 0 0 1
    outer loop
      vertex -0.930303 -8.85124 7
      vertex -10 -10 7
      vertex 10 -10 7
    endloop
  endfacet
  facet normal 0 0 1
    outer loop
      vertex -2.75025 -8.4644 7
      vertex -10 -10 7
      vertex -0.930303 -8.85124 7
    endloop
  endfacet
  facet normal 0 0 1
    outer loop
      vertex -4.45 -7.70763 7
      vertex -10 -10 7
      vertex -2.75025 -8.4644 7
    endloop
  endfacet
  facet normal 0 0 1
    outer loop
      vertex -5.95526 -6.61399 7
      vertex -10 -10 7
      vertex -4.45 -7.70763 7
    endloop
  endfacet
  facet normal 0 0 1
    outer loop
      vertex -7.20025 -5.23129 7
      vertex -10 -10 7
      vertex -5.95526 -6.61399 7
    endloop
  endfacet
  facet normal 0 0 1
    outer loop
      vertex -8.13055 -3.61996 7
      vertex -10 -10 7
      vertex -7.20025 -5.23129 7
    endloop
  endfacet
  facet normal 0 0 1
    outer loop
      vertex -8.70551 -1.85041 7
      vertex -10 -10 7
      vertex -8.13055 -3.61996 7
    endloop
  endfacet
  facet normal 0 0 1
    outer loop
      vertex -8.9 0 7
      vertex -10 -10 7
      vertex -8.70551 -1.85041 7
    endloop
  endfacet
  facet normal 0 0 -1
    outer loop
      vertex 5.65 4.98891 1
      vertex 10 3 1
      vertex 5.65 3 1
    endloop
  endfacet
  facet normal 0 0 -1
    outer loop
      vertex 10 3 1
      vertex 5.65 4.98891 1
      vertex 10 10 1
    endloop
  endfacet
  facet normal 0 0 -1
    outer loop
      vertex -10 3 1
      vertex -5.65 4.98891 1
      vertex -5.65 3 1
    endloop
  endfacet
  facet normal -0 0 -1
    outer loop
      vertex -5.65 4.98891 1
      vertex -10 3 1
      vertex -10 10 1
    endloop
  endfacet
  facet normal 0 1 -0
    outer loop
      vertex 10 3 0
      vertex 5.65 3 1
      vertex 10 3 1
    endloop
  endfacet
  facet normal 0 1 0
    outer loop
      vertex 5.65 3 1
      vertex 10 3 0
      vertex 5.65 3 0
    endloop
  endfacet
  facet normal 0 1 -0
    outer loop
      vertex -5.65 3 0
      vertex -10 3 1
      vertex -5.65 3 1
    endloop
  endfacet
  facet normal 0 1 0
    outer loop
      vertex -10 3 1
      vertex -5.65 3 0
      vertex -10 3 0
    endloop
  endfacet
  facet normal -0.924087 -0.0971245 0.369635
    outer loop
      vertex 6.9 0 2
      vertex 8.9 0 7
      vertex 6.74922 1.43459 2
    endloop
  endfacet
  facet normal -0.546154 0.751722 0.369635
    outer loop
      vertex 5.95526 -6.61399 7
      vertex 4.617 -5.1277 2
      vertex 3.45 -5.97557 2
    endloop
  endfacet
  facet normal -0.883701 -0.287131 0.369634
    outer loop
      vertex 8.70551 1.85041 7
      vertex 8.13055 3.61996 7
      vertex 6.74922 1.43459 2
    endloop
  endfacet
  facet normal -0.377927 0.848846 0.369636
    outer loop
      vertex 4.45 -7.70763 7
      vertex 3.45 -5.97557 2
      vertex 2.75025 -8.4644 7
    endloop
  endfacet
  facet normal 0.546154 0.751722 0.369635
    outer loop
      vertex -3.45 -5.97557 2
      vertex -4.617 -5.1277 2
      vertex -5.95526 -6.61399 7
    endloop
  endfacet
  facet normal 0.690515 -0.621741 0.369632
    outer loop
      vertex -5.65 4.52056 2.9085
      vertex -5.65 4.98891 3.69629
      vertex -5.73208 5.08347 4.00868
    endloop
  endfacet
  facet normal -0.690514 -0.621739 0.369635
    outer loop
      vertex 5.73208 5.08347 4.00868
      vertex 7.20025 5.23129 7
      vertex 6.51808 5.98892 7
    endloop
  endfacet
  facet normal -0.69051 -0.621745 0.369634
    outer loop
      vertex 5.65 4.52056 2.9085
      vertex 7.20025 5.23129 7
      vertex 5.73208 5.08347 4.00868
    endloop
  endfacet
  facet normal -0.690524 -0.621728 0.369636
    outer loop
      vertex 7.20025 5.23129 7
      vertex 5.65 4.52056 2.9085
      vertex 5.65 4.10496 2.20946
    endloop
  endfacet
  facet normal -0.804681 -0.464581 0.369667
    outer loop
      vertex 6.30346 2.80648 2
      vertex 5.65 4.04413 2.13299
      vertex 5.65 3.93831 2
    endloop
  endfacet
  facet normal -0.804693 -0.464584 0.369635
    outer loop
      vertex 5.65 4.04413 2.13299
      vertex 6.30346 2.80648 2
      vertex 8.13055 3.61996 7
    endloop
  endfacet
  facet normal -0.924087 -0.0971275 0.369634
    outer loop
      vertex 8.9 0 7
      vertex 8.70551 1.85041 7
      vertex 6.74922 1.43459 2
    endloop
  endfacet
  facet normal -0.883701 0.287131 0.369634
    outer loop
      vertex 8.13055 -3.61996 7
      vertex 8.70551 -1.85041 7
      vertex 6.74922 -1.43459 2
    endloop
  endfacet
  facet normal -0.883699 0.287135 0.369635
    outer loop
      vertex 8.13055 -3.61996 7
      vertex 6.74922 -1.43459 2
      vertex 6.30346 -2.80648 2
    endloop
  endfacet
  facet normal -0.804693 0.464584 0.369635
    outer loop
      vertex 8.13055 -3.61996 7
      vertex 6.30346 -2.80648 2
      vertex 5.58222 -4.05572 2
    endloop
  endfacet
  facet normal -0.804692 0.464588 0.369634
    outer loop
      vertex 7.20025 -5.23129 7
      vertex 8.13055 -3.61996 7
      vertex 5.58222 -4.05572 2
    endloop
  endfacet
  facet normal -0.546158 0.751719 0.369636
    outer loop
      vertex 4.45 -7.70763 7
      vertex 5.95526 -6.61399 7
      vertex 3.45 -5.97557 2
    endloop
  endfacet
  facet normal 0 0.929177 0.369634
    outer loop
      vertex 0.721246 -6.8622 2
      vertex -0.930303 -8.85124 7
      vertex 0.930303 -8.85124 7
    endloop
  endfacet
  facet normal 0 0.929177 0.369634
    outer loop
      vertex -0.930303 -8.85124 7
      vertex 0.721246 -6.8622 2
      vertex -0.721246 -6.8622 2
    endloop
  endfacet
  facet normal -0.193186 0.908873 0.369634
    outer loop
      vertex 0.930303 -8.85124 7
      vertex 2.75025 -8.4644 7
      vertex 0.721246 -6.8622 2
    endloop
  endfacet
  facet normal 0.924087 0.0971245 0.369635
    outer loop
      vertex -6.74922 -1.43459 2
      vertex -6.9 0 2
      vertex -8.9 0 7
    endloop
  endfacet
  facet normal 0.193186 0.908873 0.369634
    outer loop
      vertex -0.930303 -8.85124 7
      vertex -0.721246 -6.8622 2
      vertex -2.75025 -8.4644 7
    endloop
  endfacet
  facet normal 0.924087 -0.0971245 0.369635
    outer loop
      vertex -6.9 0 2
      vertex -6.74922 1.43459 2
      vertex -8.9 0 7
    endloop
  endfacet
  facet normal 0.804691 -0.464588 0.369635
    outer loop
      vertex -8.13055 3.61996 7
      vertex -5.65 4.10496 2.20946
      vertex -7.20025 5.23129 7
    endloop
  endfacet
  facet normal 0.804666 -0.464648 0.369616
    outer loop
      vertex -5.65 4.10496 2.20946
      vertex -8.13055 3.61996 7
      vertex -5.65 4.04413 2.13299
    endloop
  endfacet
  facet normal 0.690514 -0.621739 0.369635
    outer loop
      vertex -7.20025 5.23129 7
      vertex -5.73208 5.08347 4.00868
      vertex -6.51808 5.98892 7
    endloop
  endfacet
  facet normal 0.69051 -0.621745 0.369634
    outer loop
      vertex -7.20025 5.23129 7
      vertex -5.65 4.52056 2.9085
      vertex -5.73208 5.08347 4.00868
    endloop
  endfacet
  facet normal 0.690524 -0.621728 0.369636
    outer loop
      vertex -5.65 4.52056 2.9085
      vertex -7.20025 5.23129 7
      vertex -5.65 4.10496 2.20946
    endloop
  endfacet
  facet normal 0.883699 -0.287135 0.369635
    outer loop
      vertex -6.74922 1.43459 2
      vertex -6.30346 2.80648 2
      vertex -8.13055 3.61996 7
    endloop
  endfacet
  facet normal -0.804666 -0.464648 0.369616
    outer loop
      vertex 8.13055 3.61996 7
      vertex 5.65 4.10496 2.20946
      vertex 5.65 4.04413 2.13299
    endloop
  endfacet
  facet normal -0.804691 -0.464588 0.369635
    outer loop
      vertex 5.65 4.10496 2.20946
      vertex 8.13055 3.61996 7
      vertex 7.20025 5.23129 7
    endloop
  endfacet
  facet normal -0.883699 -0.287135 0.369635
    outer loop
      vertex 6.74922 1.43459 2
      vertex 8.13055 3.61996 7
      vertex 6.30346 2.80648 2
    endloop
  endfacet
  facet normal -0.924087 0.0971245 0.369635
    outer loop
      vertex 8.9 0 7
      vertex 6.9 0 2
      vertex 6.74922 -1.43459 2
    endloop
  endfacet
  facet normal -0.924087 0.0971275 0.369634
    outer loop
      vertex 8.70551 -1.85041 7
      vertex 8.9 0 7
      vertex 6.74922 -1.43459 2
    endloop
  endfacet
  facet normal -0.690513 0.621741 0.369634
    outer loop
      vertex 5.95526 -6.61399 7
      vertex 7.20025 -5.23129 7
      vertex 5.58222 -4.05572 2
    endloop
  endfacet
  facet normal -0.690512 0.621743 0.369635
    outer loop
      vertex 5.95526 -6.61399 7
      vertex 5.58222 -4.05572 2
      vertex 4.617 -5.1277 2
    endloop
  endfacet
  facet normal -0.193186 0.908873 0.369634
    outer loop
      vertex 2.75025 -8.4644 7
      vertex 2.13222 -6.56229 2
      vertex 0.721246 -6.8622 2
    endloop
  endfacet
  facet normal 0.883701 0.287131 0.369634
    outer loop
      vertex -8.13055 -3.61996 7
      vertex -6.74922 -1.43459 2
      vertex -8.70551 -1.85041 7
    endloop
  endfacet
  facet normal 0.924087 0.0971275 0.369634
    outer loop
      vertex -8.70551 -1.85041 7
      vertex -6.74922 -1.43459 2
      vertex -8.9 0 7
    endloop
  endfacet
  facet normal 0.804693 0.464584 0.369635
    outer loop
      vertex -5.58222 -4.05572 2
      vertex -6.30346 -2.80648 2
      vertex -8.13055 -3.61996 7
    endloop
  endfacet
  facet normal 0.690513 0.621741 0.369634
    outer loop
      vertex -5.95526 -6.61399 7
      vertex -5.58222 -4.05572 2
      vertex -7.20025 -5.23129 7
    endloop
  endfacet
  facet normal 0.804692 0.464588 0.369634
    outer loop
      vertex -7.20025 -5.23129 7
      vertex -5.58222 -4.05572 2
      vertex -8.13055 -3.61996 7
    endloop
  endfacet
  facet normal 0.377934 0.848844 0.369634
    outer loop
      vertex -2.75025 -8.4644 7
      vertex -2.13222 -6.56229 2
      vertex -3.45 -5.97557 2
    endloop
  endfacet
  facet normal 0.804693 -0.464584 0.369635
    outer loop
      vertex -6.30346 2.80648 2
      vertex -5.65 4.04413 2.13299
      vertex -8.13055 3.61996 7
    endloop
  endfacet
  facet normal 0.804681 -0.464581 0.369667
    outer loop
      vertex -5.65 4.04413 2.13299
      vertex -6.30346 2.80648 2
      vertex -5.65 3.93831 2
    endloop
  endfacet
  facet normal 0.924087 -0.0971275 0.369634
    outer loop
      vertex -6.74922 1.43459 2
      vertex -8.70551 1.85041 7
      vertex -8.9 0 7
    endloop
  endfacet
  facet normal 0.883701 -0.287131 0.369634
    outer loop
      vertex -6.74922 1.43459 2
      vertex -8.13055 3.61996 7
      vertex -8.70551 1.85041 7
    endloop
  endfacet
  facet normal -0.690515 -0.621741 0.369632
    outer loop
      vertex 5.73208 5.08347 4.00868
      vertex 5.65 4.98891 3.69629
      vertex 5.65 4.52056 2.9085
    endloop
  endfacet
  facet normal -0.377934 0.848844 0.369634
    outer loop
      vertex 2.75025 -8.4644 7
      vertex 3.45 -5.97557 2
      vertex 2.13222 -6.56229 2
    endloop
  endfacet
  facet normal 0 0 1
    outer loop
      vertex -5.65 3.93831 2
      vertex -6.30346 2.80648 2
      vertex -5.65 0 2
    endloop
  endfacet
  facet normal 0 0 1
    outer loop
      vertex 5.65 0 2
      vertex 6.9 0 2
      vertex 6.74922 1.43459 2
    endloop
  endfacet
  facet normal 0 0 1
    outer loop
      vertex 5.65 0 2
      vertex 6.74922 1.43459 2
      vertex 6.30346 2.80648 2
    endloop
  endfacet
  facet normal 0 0 1
    outer loop
      vertex 6.9 0 2
      vertex 5.65 0 2
      vertex 6.74922 -1.43459 2
    endloop
  endfacet
  facet normal 0 0 1
    outer loop
      vertex 5.65 0 2
      vertex 6.30346 2.80648 2
      vertex 5.65 3.93831 2
    endloop
  endfacet
  facet normal -0 0 1
    outer loop
      vertex 5.52653 -1.1747 2
      vertex 6.74922 -1.43459 2
      vertex 5.65 0 2
    endloop
  endfacet
  facet normal 0 0 1
    outer loop
      vertex 6.74922 -1.43459 2
      vertex 5.52653 -1.1747 2
      vertex 6.30346 -2.80648 2
    endloop
  endfacet
  facet normal -0 0 1
    outer loop
      vertex 5.16153 -2.29806 2
      vertex 6.30346 -2.80648 2
      vertex 5.52653 -1.1747 2
    endloop
  endfacet
  facet normal 0 0 1
    outer loop
      vertex 6.30346 -2.80648 2
      vertex 5.16153 -2.29806 2
      vertex 5.58222 -4.05572 2
    endloop
  endfacet
  facet normal -0 0 1
    outer loop
      vertex 4.57095 -3.32099 2
      vertex 5.58222 -4.05572 2
      vertex 5.16153 -2.29806 2
    endloop
  endfacet
  facet normal 0 0 1
    outer loop
      vertex 5.58222 -4.05572 2
      vertex 4.57095 -3.32099 2
      vertex 4.617 -5.1277 2
    endloop
  endfacet
  facet normal -0 0 1
    outer loop
      vertex 3.78059 -4.19877 2
      vertex 4.617 -5.1277 2
      vertex 4.57095 -3.32099 2
    endloop
  endfacet
  facet normal 0 0 1
    outer loop
      vertex 3.78059 -4.19877 2
      vertex 3.45 -5.97557 2
      vertex 4.617 -5.1277 2
    endloop
  endfacet
  facet normal -0 0 1
    outer loop
      vertex 2.825 -4.89304 2
      vertex 3.45 -5.97557 2
      vertex 3.78059 -4.19877 2
    endloop
  endfacet
  facet normal 0 0 1
    outer loop
      vertex 2.825 -4.89304 2
      vertex 2.13222 -6.56229 2
      vertex 3.45 -5.97557 2
    endloop
  endfacet
  facet normal -0 0 1
    outer loop
      vertex 1.74595 -5.37347 2
      vertex 2.13222 -6.56229 2
      vertex 2.825 -4.89304 2
    endloop
  endfacet
  facet normal 0 0 1
    outer loop
      vertex 1.74595 -5.37347 2
      vertex 0.721246 -6.8622 2
      vertex 2.13222 -6.56229 2
    endloop
  endfacet
  facet normal -0 0 1
    outer loop
      vertex 0.590586 -5.61905 2
      vertex 0.721246 -6.8622 2
      vertex 1.74595 -5.37347 2
    endloop
  endfacet
  facet normal -0 0 1
    outer loop
      vertex -0.590586 -5.61905 2
      vertex 0.721246 -6.8622 2
      vertex 0.590586 -5.61905 2
    endloop
  endfacet
  facet normal 0 0 1
    outer loop
      vertex -0.590586 -5.61905 2
      vertex -0.721246 -6.8622 2
      vertex 0.721246 -6.8622 2
    endloop
  endfacet
  facet normal 0 0 1
    outer loop
      vertex -1.74595 -5.37347 2
      vertex -0.721246 -6.8622 2
      vertex -0.590586 -5.61905 2
    endloop
  endfacet
  facet normal 0 0 1
    outer loop
      vertex -1.74595 -5.37347 2
      vertex -2.13222 -6.56229 2
      vertex -0.721246 -6.8622 2
    endloop
  endfacet
  facet normal 0 0 1
    outer loop
      vertex -2.825 -4.89304 2
      vertex -2.13222 -6.56229 2
      vertex -1.74595 -5.37347 2
    endloop
  endfacet
  facet normal 0 0 1
    outer loop
      vertex -2.825 -4.89304 2
      vertex -3.45 -5.97557 2
      vertex -2.13222 -6.56229 2
    endloop
  endfacet
  facet normal 0 0 1
    outer loop
      vertex -3.78059 -4.19877 2
      vertex -3.45 -5.97557 2
      vertex -2.825 -4.89304 2
    endloop
  endfacet
  facet normal 0 0 1
    outer loop
      vertex -4.617 -5.1277 2
      vertex -3.78059 -4.19877 2
      vertex -4.57095 -3.32099 2
    endloop
  endfacet
  facet normal 0 0 1
    outer loop
      vertex -3.78059 -4.19877 2
      vertex -4.617 -5.1277 2
      vertex -3.45 -5.97557 2
    endloop
  endfacet
  facet normal 0 0 1
    outer loop
      vertex -5.58222 -4.05572 2
      vertex -4.57095 -3.32099 2
      vertex -5.16153 -2.29806 2
    endloop
  endfacet
  facet normal 0 0 1
    outer loop
      vertex -6.30346 -2.80648 2
      vertex -5.16153 -2.29806 2
      vertex -5.52653 -1.1747 2
    endloop
  endfacet
  facet normal 0 0 1
    outer loop
      vertex -4.57095 -3.32099 2
      vertex -5.58222 -4.05572 2
      vertex -4.617 -5.1277 2
    endloop
  endfacet
  facet normal 0 0 1
    outer loop
      vertex -6.74922 -1.43459 2
      vertex -5.52653 -1.1747 2
      vertex -5.65 0 2
    endloop
  endfacet
  facet normal -0 0 1
    outer loop
      vertex -6.74922 1.43459 2
      vertex -5.65 0 2
      vertex -6.30346 2.80648 2
    endloop
  endfacet
  facet normal 0 0 1
    outer loop
      vertex -5.16153 -2.29806 2
      vertex -6.30346 -2.80648 2
      vertex -5.58222 -4.05572 2
    endloop
  endfacet
  facet normal 0 0 1
    outer loop
      vertex -6.9 0 2
      vertex -5.65 0 2
      vertex -6.74922 1.43459 2
    endloop
  endfacet
  facet normal 0 0 1
    outer loop
      vertex -5.52653 -1.1747 2
      vertex -6.74922 -1.43459 2
      vertex -6.30346 -2.80648 2
    endloop
  endfacet
  facet normal 0 0 1
    outer loop
      vertex -5.65 0 2
      vertex -6.9 0 2
      vertex -6.74922 -1.43459 2
    endloop
  endfacet
  facet normal 0.883699 0.287135 0.369635
    outer loop
      vertex -6.30346 -2.80648 2
      vertex -6.74922 -1.43459 2
      vertex -8.13055 -3.61996 7
    endloop
  endfacet
  facet normal 0.690512 0.621743 0.369635
    outer loop
      vertex -4.617 -5.1277 2
      vertex -5.58222 -4.05572 2
      vertex -5.95526 -6.61399 7
    endloop
  endfacet
  facet normal 0.377927 0.848846 0.369636
    outer loop
      vertex -2.75025 -8.4644 7
      vertex -3.45 -5.97557 2
      vertex -4.45 -7.70763 7
    endloop
  endfacet
  facet normal 0.546158 0.751719 0.369636
    outer loop
      vertex -4.45 -7.70763 7
      vertex -3.45 -5.97557 2
      vertex -5.95526 -6.61399 7
    endloop
  endfacet
  facet normal 0.193186 0.908873 0.369634
    outer loop
      vertex -0.721246 -6.8622 2
      vertex -2.13222 -6.56229 2
      vertex -2.75025 -8.4644 7
    endloop
  endfacet
endsolid OpenSCAD_Model
